<svg width="1920" height="2779" viewBox="0 0 1920 2779" fill="none" xmlns="http://www.w3.org/2000/svg">
<path opacity="0.5" d="M9.51688 1849.1H7.1377V2770.27H9.51688V1849.1Z" fill="white" fill-opacity="0.05"/>
<path opacity="0.2" d="M56.0296 1847.95H53.6504V2771.42H56.0296V1847.95Z" fill="white" fill-opacity="0.05"/>
<path opacity="0.2" d="M1007.7 1847.95H1005.32V2771.42H1007.7V1847.95Z" fill="white" fill-opacity="0.05"/>
<path opacity="0.2" d="M103.732 1847.95H101.353V2771.42H103.732V1847.95Z" fill="white" fill-opacity="0.05"/>
<path opacity="0.2" d="M1055.4 1847.95H1053.03V2771.42H1055.4V1847.95Z" fill="white" fill-opacity="0.05"/>
<path opacity="0.2" d="M151.436 1847.95H149.057V2771.42H151.436V1847.95Z" fill="white" fill-opacity="0.05"/>
<path opacity="0.2" d="M1103.11 1847.95H1100.73V2771.42H1103.11V1847.95Z" fill="white" fill-opacity="0.05"/>
<path opacity="0.2" d="M199.138 1847.95H196.759V2771.42H199.138V1847.95Z" fill="white" fill-opacity="0.05"/>
<path opacity="0.2" d="M1150.81 1847.95H1148.43V2771.42H1150.81V1847.95Z" fill="white" fill-opacity="0.05"/>
<path opacity="0.5" d="M246.84 1847.95H244.461V2771.42H246.84V1847.95Z" fill="white" fill-opacity="0.05"/>
<path opacity="0.5" d="M1198.51 1847.95H1196.13V2771.42H1198.51V1847.95Z" fill="white" fill-opacity="0.05"/>
<path opacity="0.2" d="M294.542 1847.95H292.163V2771.42H294.542V1847.95Z" fill="white" fill-opacity="0.05"/>
<path opacity="0.2" d="M1246.22 1847.95H1243.84V2771.42H1246.22V1847.95Z" fill="white" fill-opacity="0.05"/>
<path opacity="0.2" d="M342.244 1847.95H339.865V2771.42H342.244V1847.95Z" fill="white" fill-opacity="0.05"/>
<path opacity="0.2" d="M1293.92 1847.95H1291.54V2771.42H1293.92V1847.95Z" fill="white" fill-opacity="0.05"/>
<path opacity="0.2" d="M389.949 1847.95H387.569V2771.42H389.949V1847.95Z" fill="white" fill-opacity="0.05"/>
<path opacity="0.2" d="M1341.62 1847.95H1339.24V2771.42H1341.62V1847.95Z" fill="white" fill-opacity="0.05"/>
<path opacity="0.2" d="M437.651 1847.95H435.271V2771.42H437.651V1847.95Z" fill="white" fill-opacity="0.05"/>
<path opacity="0.2" d="M1389.32 1847.95H1386.94V2771.42H1389.32V1847.95Z" fill="white" fill-opacity="0.05"/>
<path opacity="0.5" d="M485.353 1847.95H482.974V2771.42H485.353V1847.95Z" fill="white" fill-opacity="0.05"/>
<path opacity="0.5" d="M1437.03 1847.95H1434.65V2771.42H1437.03V1847.95Z" fill="white" fill-opacity="0.05"/>
<path opacity="0.2" d="M533.055 1847.95H530.676V2771.42H533.055V1847.95Z" fill="white" fill-opacity="0.05"/>
<path opacity="0.2" d="M1484.73 1847.95H1482.35V2771.42H1484.73V1847.95Z" fill="white" fill-opacity="0.05"/>
<path opacity="0.2" d="M580.757 1847.95H578.378V2771.42H580.757V1847.95Z" fill="white" fill-opacity="0.05"/>
<path opacity="0.2" d="M1532.43 1847.95H1530.05V2771.42H1532.43V1847.95Z" fill="white" fill-opacity="0.05"/>
<path opacity="0.2" d="M628.462 1847.95H626.083V2771.42H628.462V1847.95Z" fill="white" fill-opacity="0.05"/>
<path opacity="0.2" d="M1580.14 1847.95H1577.76V2771.42H1580.14V1847.95Z" fill="white" fill-opacity="0.05"/>
<path opacity="0.2" d="M676.164 1847.95H673.785V2771.42H676.164V1847.95Z" fill="white" fill-opacity="0.05"/>
<path opacity="0.2" d="M1627.84 1847.95H1625.46V2771.42H1627.84V1847.95Z" fill="white" fill-opacity="0.05"/>
<path opacity="0.5" d="M723.867 1847.95H721.487V2771.42H723.867V1847.95Z" fill="white" fill-opacity="0.05"/>
<path opacity="0.5" d="M1675.54 1847.95H1673.16V2771.42H1675.54V1847.95Z" fill="white" fill-opacity="0.05"/>
<path opacity="0.2" d="M771.569 1847.95H769.189V2771.42H771.569V1847.95Z" fill="white" fill-opacity="0.05"/>
<path opacity="0.2" d="M1723.24 1847.95H1720.86V2771.42H1723.24V1847.95Z" fill="white" fill-opacity="0.05"/>
<path opacity="0.2" d="M819.271 1847.95H816.892V2771.42H819.271V1847.95Z" fill="white" fill-opacity="0.05"/>
<path opacity="0.2" d="M1770.94 1847.95H1768.56V2771.42H1770.94V1847.95Z" fill="white" fill-opacity="0.05"/>
<path opacity="0.2" d="M866.975 1847.95H864.596V2771.42H866.975V1847.95Z" fill="white" fill-opacity="0.05"/>
<path opacity="0.2" d="M1818.65 1847.95H1816.27V2771.42H1818.65V1847.95Z" fill="white" fill-opacity="0.05"/>
<path opacity="0.2" d="M914.677 1847.95H912.298V2771.42H914.677V1847.95Z" fill="white" fill-opacity="0.05"/>
<path opacity="0.2" d="M1866.35 1847.95H1863.97V2771.42H1866.35V1847.95Z" fill="white" fill-opacity="0.05"/>
<path opacity="0.5" d="M961.19 1849.1H958.811V2770.27H961.19V1849.1Z" fill="white" fill-opacity="0.05"/>
<path opacity="0.5" d="M1912.86 1849.1H1910.48V2770.27H1912.86V1849.1Z" fill="white" fill-opacity="0.05"/>
<path opacity="0.5" d="M960 1847.95H8.32715V1850.25H960V1847.95Z" fill="white" fill-opacity="0.05"/>
<path opacity="0.5" d="M1911.67 1847.95H960V1850.25H1911.67V1847.95Z" fill="white" fill-opacity="0.05"/>
<path opacity="0.2" d="M961.19 1892.97H7.1377V1895.27H961.19V1892.97Z" fill="white" fill-opacity="0.05"/>
<path opacity="0.2" d="M1912.86 1892.97H958.811V1895.27H1912.86V1892.97Z" fill="white" fill-opacity="0.05"/>
<path opacity="0.2" d="M961.19 1939.14H7.1377V1941.44H961.19V1939.14Z" fill="white" fill-opacity="0.05"/>
<path opacity="0.2" d="M1912.86 1939.14H958.811V1941.44H1912.86V1939.14Z" fill="white" fill-opacity="0.05"/>
<path opacity="0.2" d="M961.19 1985.31H7.1377V1987.62H961.19V1985.31Z" fill="white" fill-opacity="0.05"/>
<path opacity="0.2" d="M1912.86 1985.31H958.811V1987.62H1912.86V1985.31Z" fill="white" fill-opacity="0.05"/>
<path opacity="0.2" d="M961.19 2031.49H7.1377V2033.79H961.19V2031.49Z" fill="white" fill-opacity="0.05"/>
<path opacity="0.2" d="M1912.86 2031.49H958.811V2033.79H1912.86V2031.49Z" fill="white" fill-opacity="0.05"/>
<path opacity="0.5" d="M961.19 2077.66H7.1377V2079.97H961.19V2077.66Z" fill="white" fill-opacity="0.05"/>
<path opacity="0.5" d="M1912.86 2077.66H958.811V2079.97H1912.86V2077.66Z" fill="white" fill-opacity="0.05"/>
<path opacity="0.2" d="M961.19 2123.84H7.1377V2126.14H961.19V2123.84Z" fill="white" fill-opacity="0.05"/>
<path opacity="0.2" d="M1912.86 2123.84H958.811V2126.14H1912.86V2123.84Z" fill="white" fill-opacity="0.05"/>
<path opacity="0.2" d="M961.19 2170.01H7.1377V2172.31H961.19V2170.01Z" fill="white" fill-opacity="0.05"/>
<path opacity="0.2" d="M1912.86 2170.01H958.811V2172.31H1912.86V2170.01Z" fill="white" fill-opacity="0.05"/>
<path opacity="0.2" d="M961.19 2216.18H7.1377V2218.49H961.19V2216.18Z" fill="white" fill-opacity="0.05"/>
<path opacity="0.2" d="M1912.86 2216.18H958.811V2218.49H1912.86V2216.18Z" fill="white" fill-opacity="0.05"/>
<path opacity="0.2" d="M961.19 2262.36H7.1377V2264.66H961.19V2262.36Z" fill="white" fill-opacity="0.05"/>
<path opacity="0.2" d="M1912.86 2262.36H958.811V2264.66H1912.86V2262.36Z" fill="white" fill-opacity="0.05"/>
<path opacity="0.5" d="M961.19 2308.53H7.1377V2310.83H961.19V2308.53Z" fill="white" fill-opacity="0.05"/>
<path opacity="0.5" d="M1912.86 2308.53H958.811V2310.83H1912.86V2308.53Z" fill="white" fill-opacity="0.05"/>
<path opacity="0.2" d="M961.19 2354.7H7.1377V2357.01H961.19V2354.7Z" fill="white" fill-opacity="0.05"/>
<path opacity="0.2" d="M1912.86 2354.7H958.811V2357.01H1912.86V2354.7Z" fill="white" fill-opacity="0.05"/>
<path opacity="0.2" d="M961.19 2400.88H7.1377V2403.18H961.19V2400.88Z" fill="white" fill-opacity="0.05"/>
<path opacity="0.2" d="M1912.86 2400.88H958.811V2403.18H1912.86V2400.88Z" fill="white" fill-opacity="0.05"/>
<path opacity="0.2" d="M961.19 2447.05H7.1377V2449.35H961.19V2447.05Z" fill="white" fill-opacity="0.05"/>
<path opacity="0.2" d="M1912.86 2447.05H958.811V2449.35H1912.86V2447.05Z" fill="white" fill-opacity="0.05"/>
<path opacity="0.2" d="M961.19 2493.23H7.1377V2495.53H961.19V2493.23Z" fill="white" fill-opacity="0.05"/>
<path opacity="0.2" d="M1912.86 2493.23H958.811V2495.53H1912.86V2493.23Z" fill="white" fill-opacity="0.05"/>
<path opacity="0.5" d="M961.19 2539.4H7.1377V2541.7H961.19V2539.4Z" fill="white" fill-opacity="0.05"/>
<path opacity="0.5" d="M1912.86 2539.4H958.811V2541.7H1912.86V2539.4Z" fill="white" fill-opacity="0.05"/>
<path opacity="0.2" d="M961.19 2585.57H7.1377V2587.88H961.19V2585.57Z" fill="white" fill-opacity="0.05"/>
<path opacity="0.2" d="M1912.86 2585.57H958.811V2587.88H1912.86V2585.57Z" fill="white" fill-opacity="0.05"/>
<path opacity="0.2" d="M961.19 2631.75H7.1377V2634.05H961.19V2631.75Z" fill="white" fill-opacity="0.05"/>
<path opacity="0.2" d="M1912.86 2631.75H958.811V2634.05H1912.86V2631.75Z" fill="white" fill-opacity="0.05"/>
<path opacity="0.2" d="M961.19 2677.92H7.1377V2680.22H961.19V2677.92Z" fill="white" fill-opacity="0.05"/>
<path opacity="0.2" d="M1912.86 2677.92H958.811V2680.22H1912.86V2677.92Z" fill="white" fill-opacity="0.05"/>
<path opacity="0.2" d="M961.19 2724.09H7.1377V2726.4H961.19V2724.09Z" fill="white" fill-opacity="0.05"/>
<path opacity="0.2" d="M1912.86 2724.09H958.811V2726.4H1912.86V2724.09Z" fill="white" fill-opacity="0.05"/>
<path opacity="0.5" d="M960 2769.12H8.32715V2771.42H960V2769.12Z" fill="white" fill-opacity="0.05"/>
<path opacity="0.5" d="M1911.67 2769.12H960V2771.42H1911.67V2769.12Z" fill="white" fill-opacity="0.05"/>
<path d="M9.51688 1841.04H7.1377V1857.16H9.51688V1841.04Z" fill="white" fill-opacity="0.05"/>
<path d="M16.6543 1847.95H0V1850.25H16.6543V1847.95Z" fill="white" fill-opacity="0.05"/>
<path d="M961.19 1841.04H958.811V1857.16H961.19V1841.04Z" fill="white" fill-opacity="0.05"/>
<path d="M968.327 1847.95H951.673V1850.25H968.327V1847.95Z" fill="white" fill-opacity="0.05"/>
<path d="M1912.86 1841.04H1910.48V1857.16H1912.86V1841.04Z" fill="white" fill-opacity="0.05"/>
<path d="M1920 1847.95H1903.35V1850.25H1920V1847.95Z" fill="white" fill-opacity="0.05"/>
<path d="M9.51688 2071.33H7.1377V2087.45H9.51688V2071.33Z" fill="white" fill-opacity="0.05"/>
<path d="M16.6543 2078.24H0V2080.54H16.6543V2078.24Z" fill="white" fill-opacity="0.05"/>
<path d="M961.19 2071.33H958.811V2087.45H961.19V2071.33Z" fill="white" fill-opacity="0.05"/>
<path d="M968.327 2078.24H951.673V2080.54H968.327V2078.24Z" fill="white" fill-opacity="0.05"/>
<path d="M1912.86 2071.33H1910.48V2087.45H1912.86V2071.33Z" fill="white" fill-opacity="0.05"/>
<path d="M1920 2078.24H1903.35V2080.54H1920V2078.24Z" fill="white" fill-opacity="0.05"/>
<path d="M9.51688 2301.62H7.1377V2317.74H9.51688V2301.62Z" fill="white" fill-opacity="0.05"/>
<path d="M16.6543 2308.53H0V2310.83H16.6543V2308.53Z" fill="white" fill-opacity="0.05"/>
<path d="M961.19 2301.62H958.811V2317.74H961.19V2301.62Z" fill="white" fill-opacity="0.05"/>
<path d="M968.327 2308.53H951.673V2310.83H968.327V2308.53Z" fill="white" fill-opacity="0.05"/>
<path d="M1912.86 2301.62H1910.48V2317.74H1912.86V2301.62Z" fill="white" fill-opacity="0.05"/>
<path d="M1920 2308.53H1903.35V2310.83H1920V2308.53Z" fill="white" fill-opacity="0.05"/>
<path d="M9.51688 2531.91H7.1377V2548.03H9.51688V2531.91Z" fill="white" fill-opacity="0.05"/>
<path d="M16.6543 2538.82H0V2541.13H16.6543V2538.82Z" fill="white" fill-opacity="0.05"/>
<path d="M961.19 2531.91H958.811V2548.03H961.19V2531.91Z" fill="white" fill-opacity="0.05"/>
<path d="M968.327 2538.82H951.673V2541.13H968.327V2538.82Z" fill="white" fill-opacity="0.05"/>
<path d="M1912.86 2531.91H1910.48V2548.03H1912.86V2531.91Z" fill="white" fill-opacity="0.05"/>
<path d="M1920 2538.82H1903.35V2541.13H1920V2538.82Z" fill="white" fill-opacity="0.05"/>
<path d="M9.51688 2762.21H7.1377V2778.33H9.51688V2762.21Z" fill="white" fill-opacity="0.05"/>
<path d="M16.6543 2769.12H0V2771.42H16.6543V2769.12Z" fill="white" fill-opacity="0.05"/>
<path d="M247.435 1841.04H245.056V1857.16H247.435V1841.04Z" fill="white" fill-opacity="0.05"/>
<path d="M254.572 1847.95H237.918V1850.25H254.572V1847.95Z" fill="white" fill-opacity="0.05"/>
<path d="M1199.11 1841.04H1196.73V1857.16H1199.11V1841.04Z" fill="white" fill-opacity="0.05"/>
<path d="M1206.25 1847.95H1189.59V1850.25H1206.25V1847.95Z" fill="white" fill-opacity="0.05"/>
<path d="M247.435 2071.33H245.056V2087.45H247.435V2071.33Z" fill="white" fill-opacity="0.05"/>
<path d="M254.572 2078.24H237.918V2080.54H254.572V2078.24Z" fill="white" fill-opacity="0.05"/>
<path d="M1199.11 2071.33H1196.73V2087.45H1199.11V2071.33Z" fill="white" fill-opacity="0.05"/>
<path d="M1206.25 2078.24H1189.59V2080.54H1206.25V2078.24Z" fill="white" fill-opacity="0.05"/>
<path d="M247.435 2301.62H245.056V2317.74H247.435V2301.62Z" fill="white" fill-opacity="0.05"/>
<path d="M254.572 2308.53H237.918V2310.83H254.572V2308.53Z" fill="white" fill-opacity="0.05"/>
<path d="M1199.11 2301.62H1196.73V2317.74H1199.11V2301.62Z" fill="white" fill-opacity="0.05"/>
<path d="M1206.25 2308.53H1189.59V2310.83H1206.25V2308.53Z" fill="white" fill-opacity="0.05"/>
<path d="M247.435 2531.91H245.056V2548.03H247.435V2531.91Z" fill="white" fill-opacity="0.05"/>
<path d="M254.572 2538.82H237.918V2541.13H254.572V2538.82Z" fill="white" fill-opacity="0.05"/>
<path d="M1199.11 2531.91H1196.73V2548.03H1199.11V2531.91Z" fill="white" fill-opacity="0.05"/>
<path d="M1206.25 2538.82H1189.59V2541.13H1206.25V2538.82Z" fill="white" fill-opacity="0.05"/>
<path d="M247.435 2762.21H245.056V2778.33H247.435V2762.21Z" fill="white" fill-opacity="0.05"/>
<path d="M254.572 2769.12H237.918V2771.42H254.572V2769.12Z" fill="white" fill-opacity="0.05"/>
<path d="M1199.11 2762.21H1196.73V2778.33H1199.11V2762.21Z" fill="white" fill-opacity="0.05"/>
<path d="M1206.25 2769.12H1189.59V2771.42H1206.25V2769.12Z" fill="white" fill-opacity="0.05"/>
<path d="M485.354 1841.04H482.975V1857.16H485.354V1841.04Z" fill="white" fill-opacity="0.05"/>
<path d="M492.491 1847.95H475.837V1850.25H492.491V1847.95Z" fill="white" fill-opacity="0.05"/>
<path d="M1437.03 1841.04H1434.65V1857.16H1437.03V1841.04Z" fill="white" fill-opacity="0.05"/>
<path d="M1444.16 1847.95H1427.51V1850.25H1444.16V1847.95Z" fill="white" fill-opacity="0.05"/>
<path d="M485.354 2071.33H482.975V2087.45H485.354V2071.33Z" fill="white" fill-opacity="0.05"/>
<path d="M492.491 2078.24H475.837V2080.54H492.491V2078.24Z" fill="white" fill-opacity="0.05"/>
<path d="M1437.03 2071.33H1434.65V2087.45H1437.03V2071.33Z" fill="white" fill-opacity="0.05"/>
<path d="M1444.16 2078.24H1427.51V2080.54H1444.16V2078.24Z" fill="white" fill-opacity="0.05"/>
<path d="M485.354 2301.62H482.975V2317.74H485.354V2301.62Z" fill="white" fill-opacity="0.05"/>
<path d="M492.491 2308.53H475.837V2310.83H492.491V2308.53Z" fill="white" fill-opacity="0.05"/>
<path d="M1437.03 2301.62H1434.65V2317.74H1437.03V2301.62Z" fill="white" fill-opacity="0.05"/>
<path d="M1444.16 2308.53H1427.51V2310.83H1444.16V2308.53Z" fill="white" fill-opacity="0.05"/>
<path d="M485.354 2531.91H482.975V2548.03H485.354V2531.91Z" fill="white" fill-opacity="0.05"/>
<path d="M492.491 2538.82H475.837V2541.13H492.491V2538.82Z" fill="white" fill-opacity="0.05"/>
<path d="M1437.03 2531.91H1434.65V2548.03H1437.03V2531.91Z" fill="white" fill-opacity="0.05"/>
<path d="M1444.16 2538.82H1427.51V2541.13H1444.16V2538.82Z" fill="white" fill-opacity="0.05"/>
<path d="M485.354 2762.21H482.975V2778.33H485.354V2762.21Z" fill="white" fill-opacity="0.05"/>
<path d="M492.491 2769.12H475.837V2771.42H492.491V2769.12Z" fill="white" fill-opacity="0.05"/>
<path d="M1437.03 2762.21H1434.65V2778.33H1437.03V2762.21Z" fill="white" fill-opacity="0.05"/>
<path d="M1444.16 2769.12H1427.51V2771.42H1444.16V2769.12Z" fill="white" fill-opacity="0.05"/>
<path d="M723.27 1841.04H720.891V1857.16H723.27V1841.04Z" fill="white" fill-opacity="0.05"/>
<path d="M730.407 1847.95H713.753V1850.25H730.407V1847.95Z" fill="white" fill-opacity="0.05"/>
<path d="M1674.94 1841.04H1672.57V1857.16H1674.94V1841.04Z" fill="white" fill-opacity="0.05"/>
<path d="M1682.08 1847.95H1665.43V1850.25H1682.08V1847.95Z" fill="white" fill-opacity="0.05"/>
<path d="M723.27 2071.33H720.891V2087.45H723.27V2071.33Z" fill="white" fill-opacity="0.05"/>
<path d="M730.407 2078.24H713.753V2080.54H730.407V2078.24Z" fill="white" fill-opacity="0.05"/>
<path d="M1674.94 2071.33H1672.57V2087.45H1674.94V2071.33Z" fill="white" fill-opacity="0.05"/>
<path d="M1682.08 2078.24H1665.43V2080.54H1682.08V2078.24Z" fill="white" fill-opacity="0.05"/>
<path d="M723.27 2301.62H720.891V2317.74H723.27V2301.62Z" fill="white" fill-opacity="0.05"/>
<path d="M730.407 2308.53H713.753V2310.83H730.407V2308.53Z" fill="white" fill-opacity="0.05"/>
<path d="M1674.94 2301.62H1672.57V2317.74H1674.94V2301.62Z" fill="white" fill-opacity="0.05"/>
<path d="M1682.08 2308.53H1665.43V2310.83H1682.08V2308.53Z" fill="white" fill-opacity="0.05"/>
<path d="M723.27 2531.91H720.891V2548.03H723.27V2531.91Z" fill="white" fill-opacity="0.05"/>
<path d="M730.407 2538.82H713.753V2541.13H730.407V2538.82Z" fill="white" fill-opacity="0.05"/>
<path d="M1674.94 2531.91H1672.57V2548.03H1674.94V2531.91Z" fill="white" fill-opacity="0.05"/>
<path d="M1682.08 2538.82H1665.43V2541.13H1682.08V2538.82Z" fill="white" fill-opacity="0.05"/>
<path d="M723.27 2762.21H720.891V2778.33H723.27V2762.21Z" fill="white" fill-opacity="0.05"/>
<path d="M730.407 2769.12H713.753V2771.42H730.407V2769.12Z" fill="white" fill-opacity="0.05"/>
<path d="M1674.94 2762.21H1672.57V2778.33H1674.94V2762.21Z" fill="white" fill-opacity="0.05"/>
<path d="M1682.08 2769.12H1665.43V2771.42H1682.08V2769.12Z" fill="white" fill-opacity="0.05"/>
<path d="M961.19 2762.21H958.811V2778.33H961.19V2762.21Z" fill="white" fill-opacity="0.05"/>
<path d="M968.327 2769.12H951.673V2771.42H968.327V2769.12Z" fill="white" fill-opacity="0.05"/>
<path d="M1912.86 2762.21H1910.48V2778.33H1912.86V2762.21Z" fill="white" fill-opacity="0.05"/>
<path d="M1920 2769.12H1903.35V2771.42H1920V2769.12Z" fill="white" fill-opacity="0.05"/>
<path d="M128.476 1963.09H126.097V1965.39H128.476V1963.09Z" fill="white" fill-opacity="0.05"/>
<path d="M1080.15 1963.09H1077.77V1965.39H1080.15V1963.09Z" fill="white" fill-opacity="0.05"/>
<path d="M366.394 1963.09H364.015V1965.39H366.394V1963.09Z" fill="white" fill-opacity="0.05"/>
<path d="M1318.07 1963.09H1315.69V1965.39H1318.07V1963.09Z" fill="white" fill-opacity="0.05"/>
<path d="M604.313 1963.09H601.934V1965.39H604.313V1963.09Z" fill="white" fill-opacity="0.05"/>
<path d="M1555.99 1963.09H1553.61V1965.39H1555.99V1963.09Z" fill="white" fill-opacity="0.05"/>
<path d="M842.231 1963.09H839.852V1965.39H842.231V1963.09Z" fill="white" fill-opacity="0.05"/>
<path d="M1793.9 1963.09H1791.52V1965.39H1793.9V1963.09Z" fill="white" fill-opacity="0.05"/>
<path d="M128.476 2193.38H126.097V2195.69H128.476V2193.38Z" fill="white" fill-opacity="0.05"/>
<path d="M1080.15 2193.38H1077.77V2195.69H1080.15V2193.38Z" fill="white" fill-opacity="0.05"/>
<path d="M366.394 2193.38H364.015V2195.69H366.394V2193.38Z" fill="white" fill-opacity="0.05"/>
<path d="M1318.07 2193.38H1315.69V2195.69H1318.07V2193.38Z" fill="white" fill-opacity="0.05"/>
<path d="M604.313 2193.38H601.934V2195.69H604.313V2193.38Z" fill="white" fill-opacity="0.05"/>
<path d="M1555.99 2193.38H1553.61V2195.69H1555.99V2193.38Z" fill="white" fill-opacity="0.05"/>
<path d="M842.231 2193.38H839.852V2195.69H842.231V2193.38Z" fill="white" fill-opacity="0.05"/>
<path d="M1793.9 2193.38H1791.52V2195.69H1793.9V2193.38Z" fill="white" fill-opacity="0.05"/>
<path d="M128.476 2423.68H126.097V2425.98H128.476V2423.68Z" fill="white" fill-opacity="0.05"/>
<path d="M1080.15 2423.68H1077.77V2425.98H1080.15V2423.68Z" fill="white" fill-opacity="0.05"/>
<path d="M366.394 2423.68H364.015V2425.98H366.394V2423.68Z" fill="white" fill-opacity="0.05"/>
<path d="M1318.07 2423.68H1315.69V2425.98H1318.07V2423.68Z" fill="white" fill-opacity="0.05"/>
<path d="M604.313 2423.68H601.934V2425.98H604.313V2423.68Z" fill="white" fill-opacity="0.05"/>
<path d="M1555.99 2423.68H1553.61V2425.98H1555.99V2423.68Z" fill="white" fill-opacity="0.05"/>
<path d="M842.231 2423.68H839.852V2425.98H842.231V2423.68Z" fill="white" fill-opacity="0.05"/>
<path d="M1793.9 2423.68H1791.52V2425.98H1793.9V2423.68Z" fill="white" fill-opacity="0.05"/>
<path d="M128.476 2653.97H126.097V2656.27H128.476V2653.97Z" fill="white" fill-opacity="0.05"/>
<path d="M1080.15 2653.97H1077.77V2656.27H1080.15V2653.97Z" fill="white" fill-opacity="0.05"/>
<path d="M366.394 2653.97H364.015V2656.27H366.394V2653.97Z" fill="white" fill-opacity="0.05"/>
<path d="M1318.07 2653.97H1315.69V2656.27H1318.07V2653.97Z" fill="white" fill-opacity="0.05"/>
<path d="M604.313 2653.97H601.934V2656.27H604.313V2653.97Z" fill="white" fill-opacity="0.05"/>
<path d="M1555.99 2653.97H1553.61V2656.27H1555.99V2653.97Z" fill="white" fill-opacity="0.05"/>
<path d="M842.231 2653.97H839.852V2656.27H842.231V2653.97Z" fill="white" fill-opacity="0.05"/>
<path d="M1793.9 2653.97H1791.52V2656.27H1793.9V2653.97Z" fill="white" fill-opacity="0.05"/>
<path opacity="0.5" d="M9.51688 928.579H7.1377V1849.75H9.51688V928.579Z" fill="white" fill-opacity="0.05"/>
<path opacity="0.2" d="M56.0296 927.427H53.6504V1850.9H56.0296V927.427Z" fill="white" fill-opacity="0.05"/>
<path opacity="0.2" d="M1007.7 927.427H1005.32V1850.9H1007.7V927.427Z" fill="white" fill-opacity="0.05"/>
<path opacity="0.2" d="M103.732 927.427H101.353V1850.9H103.732V927.427Z" fill="white" fill-opacity="0.05"/>
<path opacity="0.2" d="M1055.4 927.427H1053.03V1850.9H1055.4V927.427Z" fill="white" fill-opacity="0.05"/>
<path opacity="0.2" d="M151.436 927.427H149.057V1850.9H151.436V927.427Z" fill="white" fill-opacity="0.05"/>
<path opacity="0.2" d="M1103.11 927.427H1100.73V1850.9H1103.11V927.427Z" fill="white" fill-opacity="0.05"/>
<path opacity="0.2" d="M199.138 927.427H196.759V1850.9H199.138V927.427Z" fill="white" fill-opacity="0.05"/>
<path opacity="0.2" d="M1150.81 927.427H1148.43V1850.9H1150.81V927.427Z" fill="white" fill-opacity="0.05"/>
<path opacity="0.5" d="M246.84 927.427H244.461V1850.9H246.84V927.427Z" fill="white" fill-opacity="0.05"/>
<path opacity="0.5" d="M1198.51 927.427H1196.13V1850.9H1198.51V927.427Z" fill="white" fill-opacity="0.05"/>
<path opacity="0.2" d="M294.542 927.427H292.163V1850.9H294.542V927.427Z" fill="white" fill-opacity="0.05"/>
<path opacity="0.2" d="M1246.22 927.427H1243.84V1850.9H1246.22V927.427Z" fill="white" fill-opacity="0.05"/>
<path opacity="0.2" d="M342.244 927.427H339.865V1850.9H342.244V927.427Z" fill="white" fill-opacity="0.05"/>
<path opacity="0.2" d="M1293.92 927.427H1291.54V1850.9H1293.92V927.427Z" fill="white" fill-opacity="0.05"/>
<path opacity="0.2" d="M389.949 927.427H387.569V1850.9H389.949V927.427Z" fill="white" fill-opacity="0.05"/>
<path opacity="0.2" d="M1341.62 927.427H1339.24V1850.9H1341.62V927.427Z" fill="white" fill-opacity="0.05"/>
<path opacity="0.2" d="M437.651 927.427H435.271V1850.9H437.651V927.427Z" fill="white" fill-opacity="0.05"/>
<path opacity="0.2" d="M1389.32 927.427H1386.94V1850.9H1389.32V927.427Z" fill="white" fill-opacity="0.05"/>
<path opacity="0.5" d="M485.353 927.427H482.974V1850.9H485.353V927.427Z" fill="white" fill-opacity="0.05"/>
<path opacity="0.5" d="M1437.03 927.427H1434.65V1850.9H1437.03V927.427Z" fill="white" fill-opacity="0.05"/>
<path opacity="0.2" d="M533.055 927.427H530.676V1850.9H533.055V927.427Z" fill="white" fill-opacity="0.05"/>
<path opacity="0.2" d="M1484.73 927.427H1482.35V1850.9H1484.73V927.427Z" fill="white" fill-opacity="0.05"/>
<path opacity="0.2" d="M580.757 927.427H578.378V1850.9H580.757V927.427Z" fill="white" fill-opacity="0.05"/>
<path opacity="0.2" d="M1532.43 927.427H1530.05V1850.9H1532.43V927.427Z" fill="white" fill-opacity="0.05"/>
<path opacity="0.2" d="M628.462 927.427H626.083V1850.9H628.462V927.427Z" fill="white" fill-opacity="0.05"/>
<path opacity="0.2" d="M1580.14 927.427H1577.76V1850.9H1580.14V927.427Z" fill="white" fill-opacity="0.05"/>
<path opacity="0.2" d="M676.164 927.427H673.785V1850.9H676.164V927.427Z" fill="white" fill-opacity="0.05"/>
<path opacity="0.2" d="M1627.84 927.427H1625.46V1850.9H1627.84V927.427Z" fill="white" fill-opacity="0.05"/>
<path opacity="0.5" d="M723.867 927.427H721.487V1850.9H723.867V927.427Z" fill="white" fill-opacity="0.05"/>
<path opacity="0.5" d="M1675.54 927.427H1673.16V1850.9H1675.54V927.427Z" fill="white" fill-opacity="0.05"/>
<path opacity="0.2" d="M771.569 927.427H769.189V1850.9H771.569V927.427Z" fill="white" fill-opacity="0.05"/>
<path opacity="0.2" d="M1723.24 927.427H1720.86V1850.9H1723.24V927.427Z" fill="white" fill-opacity="0.05"/>
<path opacity="0.2" d="M819.271 927.427H816.892V1850.9H819.271V927.427Z" fill="white" fill-opacity="0.05"/>
<path opacity="0.2" d="M1770.94 927.427H1768.56V1850.9H1770.94V927.427Z" fill="white" fill-opacity="0.05"/>
<path opacity="0.2" d="M866.975 927.427H864.596V1850.9H866.975V927.427Z" fill="white" fill-opacity="0.05"/>
<path opacity="0.2" d="M1818.65 927.427H1816.27V1850.9H1818.65V927.427Z" fill="white" fill-opacity="0.05"/>
<path opacity="0.2" d="M914.677 927.427H912.298V1850.9H914.677V927.427Z" fill="white" fill-opacity="0.05"/>
<path opacity="0.2" d="M1866.35 927.427H1863.97V1850.9H1866.35V927.427Z" fill="white" fill-opacity="0.05"/>
<path opacity="0.5" d="M961.19 928.579H958.811V1849.75H961.19V928.579Z" fill="white" fill-opacity="0.05"/>
<path opacity="0.5" d="M1912.86 928.579H1910.48V1849.75H1912.86V928.579Z" fill="white" fill-opacity="0.05"/>
<path opacity="0.5" d="M960 927.427H8.32715V929.73H960V927.427Z" fill="white" fill-opacity="0.05"/>
<path opacity="0.5" d="M1911.67 927.427H960V929.73H1911.67V927.427Z" fill="white" fill-opacity="0.05"/>
<path opacity="0.2" d="M961.19 972.45H7.1377V974.753H961.19V972.45Z" fill="white" fill-opacity="0.05"/>
<path opacity="0.2" d="M1912.86 972.45H958.811V974.753H1912.86V972.45Z" fill="white" fill-opacity="0.05"/>
<path opacity="0.2" d="M961.19 1018.62H7.1377V1020.93H961.19V1018.62Z" fill="white" fill-opacity="0.05"/>
<path opacity="0.2" d="M1912.86 1018.62H958.811V1020.93H1912.86V1018.62Z" fill="white" fill-opacity="0.05"/>
<path opacity="0.2" d="M961.19 1064.8H7.1377V1067.1H961.19V1064.8Z" fill="white" fill-opacity="0.05"/>
<path opacity="0.2" d="M1912.86 1064.8H958.811V1067.1H1912.86V1064.8Z" fill="white" fill-opacity="0.05"/>
<path opacity="0.2" d="M961.19 1110.97H7.1377V1113.27H961.19V1110.97Z" fill="white" fill-opacity="0.05"/>
<path opacity="0.2" d="M1912.86 1110.97H958.811V1113.27H1912.86V1110.97Z" fill="white" fill-opacity="0.05"/>
<path opacity="0.5" d="M961.19 1157.14H7.1377V1159.45H961.19V1157.14Z" fill="white" fill-opacity="0.05"/>
<path opacity="0.5" d="M1912.86 1157.14H958.811V1159.45H1912.86V1157.14Z" fill="white" fill-opacity="0.05"/>
<path opacity="0.2" d="M961.19 1203.32H7.1377V1205.62H961.19V1203.32Z" fill="white" fill-opacity="0.05"/>
<path opacity="0.2" d="M1912.86 1203.32H958.811V1205.62H1912.86V1203.32Z" fill="white" fill-opacity="0.05"/>
<path opacity="0.2" d="M961.19 1249.49H7.1377V1251.79H961.19V1249.49Z" fill="white" fill-opacity="0.05"/>
<path opacity="0.2" d="M1912.86 1249.49H958.811V1251.79H1912.86V1249.49Z" fill="white" fill-opacity="0.05"/>
<path opacity="0.2" d="M961.19 1295.66H7.1377V1297.97H961.19V1295.66Z" fill="white" fill-opacity="0.05"/>
<path opacity="0.2" d="M1912.86 1295.66H958.811V1297.97H1912.86V1295.66Z" fill="white" fill-opacity="0.05"/>
<path opacity="0.2" d="M961.19 1341.84H7.1377V1344.14H961.19V1341.84Z" fill="white" fill-opacity="0.05"/>
<path opacity="0.2" d="M1912.86 1341.84H958.811V1344.14H1912.86V1341.84Z" fill="white" fill-opacity="0.05"/>
<path opacity="0.5" d="M961.19 1388.01H7.1377V1390.32H961.19V1388.01Z" fill="white" fill-opacity="0.05"/>
<path opacity="0.5" d="M1912.86 1388.01H958.811V1390.32H1912.86V1388.01Z" fill="white" fill-opacity="0.05"/>
<path opacity="0.2" d="M961.19 1434.19H7.1377V1436.49H961.19V1434.19Z" fill="white" fill-opacity="0.05"/>
<path opacity="0.2" d="M1912.86 1434.19H958.811V1436.49H1912.86V1434.19Z" fill="white" fill-opacity="0.05"/>
<path opacity="0.2" d="M961.19 1480.36H7.1377V1482.66H961.19V1480.36Z" fill="white" fill-opacity="0.05"/>
<path opacity="0.2" d="M1912.86 1480.36H958.811V1482.66H1912.86V1480.36Z" fill="white" fill-opacity="0.05"/>
<path opacity="0.2" d="M961.19 1526.53H7.1377V1528.84H961.19V1526.53Z" fill="white" fill-opacity="0.05"/>
<path opacity="0.2" d="M1912.86 1526.53H958.811V1528.84H1912.86V1526.53Z" fill="white" fill-opacity="0.05"/>
<path opacity="0.2" d="M961.19 1572.71H7.1377V1575.01H961.19V1572.71Z" fill="white" fill-opacity="0.05"/>
<path opacity="0.2" d="M1912.86 1572.71H958.811V1575.01H1912.86V1572.71Z" fill="white" fill-opacity="0.05"/>
<path opacity="0.5" d="M961.19 1618.88H7.1377V1621.18H961.19V1618.88Z" fill="white" fill-opacity="0.05"/>
<path opacity="0.5" d="M1912.86 1618.88H958.811V1621.18H1912.86V1618.88Z" fill="white" fill-opacity="0.05"/>
<path opacity="0.2" d="M961.19 1665.05H7.1377V1667.36H961.19V1665.05Z" fill="white" fill-opacity="0.05"/>
<path opacity="0.2" d="M1912.86 1665.05H958.811V1667.36H1912.86V1665.05Z" fill="white" fill-opacity="0.05"/>
<path opacity="0.2" d="M961.19 1711.23H7.1377V1713.53H961.19V1711.23Z" fill="white" fill-opacity="0.05"/>
<path opacity="0.2" d="M1912.86 1711.23H958.811V1713.53H1912.86V1711.23Z" fill="white" fill-opacity="0.05"/>
<path opacity="0.2" d="M961.19 1757.4H7.1377V1759.7H961.19V1757.4Z" fill="white" fill-opacity="0.05"/>
<path opacity="0.2" d="M1912.86 1757.4H958.811V1759.7H1912.86V1757.4Z" fill="white" fill-opacity="0.05"/>
<path opacity="0.2" d="M961.19 1803.57H7.1377V1805.88H961.19V1803.57Z" fill="white" fill-opacity="0.05"/>
<path opacity="0.2" d="M1912.86 1803.57H958.811V1805.88H1912.86V1803.57Z" fill="white" fill-opacity="0.05"/>
<path opacity="0.5" d="M960 1848.6H8.32715V1850.9H960V1848.6Z" fill="white" fill-opacity="0.05"/>
<path opacity="0.5" d="M1911.67 1848.6H960V1850.9H1911.67V1848.6Z" fill="white" fill-opacity="0.05"/>
<path d="M9.51688 920.519H7.1377V936.639H9.51688V920.519Z" fill="white" fill-opacity="0.05"/>
<path d="M16.6543 927.427H0V929.73H16.6543V927.427Z" fill="white" fill-opacity="0.05"/>
<path d="M961.19 920.519H958.811V936.639H961.19V920.519Z" fill="white" fill-opacity="0.05"/>
<path d="M968.327 927.427H951.673V929.73H968.327V927.427Z" fill="white" fill-opacity="0.05"/>
<path d="M1912.86 920.519H1910.48V936.639H1912.86V920.519Z" fill="white" fill-opacity="0.05"/>
<path d="M1920 927.427H1903.35V929.73H1920V927.427Z" fill="white" fill-opacity="0.05"/>
<path d="M9.51688 1150.81H7.1377V1166.93H9.51688V1150.81Z" fill="white" fill-opacity="0.05"/>
<path d="M16.6543 1157.72H0V1160.02H16.6543V1157.72Z" fill="white" fill-opacity="0.05"/>
<path d="M961.19 1150.81H958.811V1166.93H961.19V1150.81Z" fill="white" fill-opacity="0.05"/>
<path d="M968.327 1157.72H951.673V1160.02H968.327V1157.72Z" fill="white" fill-opacity="0.05"/>
<path d="M1912.86 1150.81H1910.48V1166.93H1912.86V1150.81Z" fill="white" fill-opacity="0.05"/>
<path d="M1920 1157.72H1903.35V1160.02H1920V1157.72Z" fill="white" fill-opacity="0.05"/>
<path d="M9.51688 1381.1H7.1377V1397.22H9.51688V1381.1Z" fill="white" fill-opacity="0.05"/>
<path d="M16.6543 1388.01H0V1390.32H16.6543V1388.01Z" fill="white" fill-opacity="0.05"/>
<path d="M961.19 1381.1H958.811V1397.22H961.19V1381.1Z" fill="white" fill-opacity="0.05"/>
<path d="M968.327 1388.01H951.673V1390.32H968.327V1388.01Z" fill="white" fill-opacity="0.05"/>
<path d="M1912.86 1381.1H1910.48V1397.22H1912.86V1381.1Z" fill="white" fill-opacity="0.05"/>
<path d="M1920 1388.01H1903.35V1390.32H1920V1388.01Z" fill="white" fill-opacity="0.05"/>
<path d="M9.51688 1611.4H7.1377V1627.52H9.51688V1611.4Z" fill="white" fill-opacity="0.05"/>
<path d="M16.6543 1618.3H0V1620.61H16.6543V1618.3Z" fill="white" fill-opacity="0.05"/>
<path d="M961.19 1611.4H958.811V1627.52H961.19V1611.4Z" fill="white" fill-opacity="0.05"/>
<path d="M968.327 1618.3H951.673V1620.61H968.327V1618.3Z" fill="white" fill-opacity="0.05"/>
<path d="M1912.86 1611.4H1910.48V1627.52H1912.86V1611.4Z" fill="white" fill-opacity="0.05"/>
<path d="M1920 1618.3H1903.35V1620.61H1920V1618.3Z" fill="white" fill-opacity="0.05"/>
<path d="M9.51688 1841.69H7.1377V1857.81H9.51688V1841.69Z" fill="white" fill-opacity="0.05"/>
<path d="M16.6543 1848.6H0V1850.9H16.6543V1848.6Z" fill="white" fill-opacity="0.05"/>
<path d="M247.435 920.519H245.056V936.639H247.435V920.519Z" fill="white" fill-opacity="0.05"/>
<path d="M254.572 927.427H237.918V929.73H254.572V927.427Z" fill="white" fill-opacity="0.05"/>
<path d="M1199.11 920.519H1196.73V936.639H1199.11V920.519Z" fill="white" fill-opacity="0.05"/>
<path d="M1206.25 927.427H1189.59V929.73H1206.25V927.427Z" fill="white" fill-opacity="0.05"/>
<path d="M247.435 1150.81H245.056V1166.93H247.435V1150.81Z" fill="white" fill-opacity="0.05"/>
<path d="M254.572 1157.72H237.918V1160.02H254.572V1157.72Z" fill="white" fill-opacity="0.05"/>
<path d="M1199.11 1150.81H1196.73V1166.93H1199.11V1150.81Z" fill="white" fill-opacity="0.05"/>
<path d="M1206.25 1157.72H1189.59V1160.02H1206.25V1157.72Z" fill="white" fill-opacity="0.05"/>
<path d="M247.435 1381.1H245.056V1397.22H247.435V1381.1Z" fill="white" fill-opacity="0.05"/>
<path d="M254.572 1388.01H237.918V1390.32H254.572V1388.01Z" fill="white" fill-opacity="0.05"/>
<path d="M1199.11 1381.1H1196.73V1397.22H1199.11V1381.1Z" fill="white" fill-opacity="0.05"/>
<path d="M1206.25 1388.01H1189.59V1390.32H1206.25V1388.01Z" fill="white" fill-opacity="0.05"/>
<path d="M247.435 1611.4H245.056V1627.52H247.435V1611.4Z" fill="white" fill-opacity="0.05"/>
<path d="M254.572 1618.3H237.918V1620.61H254.572V1618.3Z" fill="white" fill-opacity="0.05"/>
<path d="M1199.11 1611.4H1196.73V1627.52H1199.11V1611.4Z" fill="white" fill-opacity="0.05"/>
<path d="M1206.25 1618.3H1189.59V1620.61H1206.25V1618.3Z" fill="white" fill-opacity="0.05"/>
<path d="M247.435 1841.69H245.056V1857.81H247.435V1841.69Z" fill="white" fill-opacity="0.05"/>
<path d="M254.572 1848.6H237.918V1850.9H254.572V1848.6Z" fill="white" fill-opacity="0.05"/>
<path d="M1199.11 1841.69H1196.73V1857.81H1199.11V1841.69Z" fill="white" fill-opacity="0.05"/>
<path d="M1206.25 1848.6H1189.59V1850.9H1206.25V1848.6Z" fill="white" fill-opacity="0.05"/>
<path d="M485.354 920.519H482.975V936.639H485.354V920.519Z" fill="white" fill-opacity="0.05"/>
<path d="M492.491 927.427H475.837V929.73H492.491V927.427Z" fill="white" fill-opacity="0.05"/>
<path d="M1437.03 920.519H1434.65V936.639H1437.03V920.519Z" fill="white" fill-opacity="0.05"/>
<path d="M1444.16 927.427H1427.51V929.73H1444.16V927.427Z" fill="white" fill-opacity="0.05"/>
<path d="M485.354 1150.81H482.975V1166.93H485.354V1150.81Z" fill="white" fill-opacity="0.05"/>
<path d="M492.491 1157.72H475.837V1160.02H492.491V1157.72Z" fill="white" fill-opacity="0.05"/>
<path d="M1437.03 1150.81H1434.65V1166.93H1437.03V1150.81Z" fill="white" fill-opacity="0.05"/>
<path d="M1444.16 1157.72H1427.51V1160.02H1444.16V1157.72Z" fill="white" fill-opacity="0.05"/>
<path d="M485.354 1381.1H482.975V1397.22H485.354V1381.1Z" fill="white" fill-opacity="0.05"/>
<path d="M492.491 1388.01H475.837V1390.32H492.491V1388.01Z" fill="white" fill-opacity="0.05"/>
<path d="M1437.03 1381.1H1434.65V1397.22H1437.03V1381.1Z" fill="white" fill-opacity="0.05"/>
<path d="M1444.16 1388.01H1427.51V1390.32H1444.16V1388.01Z" fill="white" fill-opacity="0.05"/>
<path d="M485.354 1611.4H482.975V1627.52H485.354V1611.4Z" fill="white" fill-opacity="0.05"/>
<path d="M492.491 1618.3H475.837V1620.61H492.491V1618.3Z" fill="white" fill-opacity="0.05"/>
<path d="M1437.03 1611.4H1434.65V1627.52H1437.03V1611.4Z" fill="white" fill-opacity="0.05"/>
<path d="M1444.16 1618.3H1427.51V1620.61H1444.16V1618.3Z" fill="white" fill-opacity="0.05"/>
<path d="M485.354 1841.69H482.975V1857.81H485.354V1841.69Z" fill="white" fill-opacity="0.05"/>
<path d="M492.491 1848.6H475.837V1850.9H492.491V1848.6Z" fill="white" fill-opacity="0.05"/>
<path d="M1437.03 1841.69H1434.65V1857.81H1437.03V1841.69Z" fill="white" fill-opacity="0.05"/>
<path d="M1444.16 1848.6H1427.51V1850.9H1444.16V1848.6Z" fill="white" fill-opacity="0.05"/>
<path d="M723.27 920.519H720.891V936.639H723.27V920.519Z" fill="white" fill-opacity="0.05"/>
<path d="M730.407 927.427H713.753V929.73H730.407V927.427Z" fill="white" fill-opacity="0.05"/>
<path d="M1674.94 920.519H1672.57V936.639H1674.94V920.519Z" fill="white" fill-opacity="0.05"/>
<path d="M1682.08 927.427H1665.43V929.73H1682.08V927.427Z" fill="white" fill-opacity="0.05"/>
<path d="M723.27 1150.81H720.891V1166.93H723.27V1150.81Z" fill="white" fill-opacity="0.05"/>
<path d="M730.407 1157.72H713.753V1160.02H730.407V1157.72Z" fill="white" fill-opacity="0.05"/>
<path d="M1674.94 1150.81H1672.57V1166.93H1674.94V1150.81Z" fill="white" fill-opacity="0.05"/>
<path d="M1682.08 1157.72H1665.43V1160.02H1682.08V1157.72Z" fill="white" fill-opacity="0.05"/>
<path d="M723.27 1381.1H720.891V1397.22H723.27V1381.1Z" fill="white" fill-opacity="0.05"/>
<path d="M730.407 1388.01H713.753V1390.32H730.407V1388.01Z" fill="white" fill-opacity="0.05"/>
<path d="M1674.94 1381.1H1672.57V1397.22H1674.94V1381.1Z" fill="white" fill-opacity="0.05"/>
<path d="M1682.08 1388.01H1665.43V1390.32H1682.08V1388.01Z" fill="white" fill-opacity="0.05"/>
<path d="M723.27 1611.4H720.891V1627.52H723.27V1611.4Z" fill="white" fill-opacity="0.05"/>
<path d="M730.407 1618.3H713.753V1620.61H730.407V1618.3Z" fill="white" fill-opacity="0.05"/>
<path d="M1674.94 1611.4H1672.57V1627.52H1674.94V1611.4Z" fill="white" fill-opacity="0.05"/>
<path d="M1682.08 1618.3H1665.43V1620.61H1682.08V1618.3Z" fill="white" fill-opacity="0.05"/>
<path d="M723.27 1841.69H720.891V1857.81H723.27V1841.69Z" fill="white" fill-opacity="0.05"/>
<path d="M730.407 1848.6H713.753V1850.9H730.407V1848.6Z" fill="white" fill-opacity="0.05"/>
<path d="M1674.94 1841.69H1672.57V1857.81H1674.94V1841.69Z" fill="white" fill-opacity="0.05"/>
<path d="M1682.08 1848.6H1665.43V1850.9H1682.08V1848.6Z" fill="white" fill-opacity="0.05"/>
<path d="M961.19 1841.69H958.811V1857.81H961.19V1841.69Z" fill="white" fill-opacity="0.05"/>
<path d="M968.327 1848.6H951.673V1850.9H968.327V1848.6Z" fill="white" fill-opacity="0.05"/>
<path d="M1912.86 1841.69H1910.48V1857.81H1912.86V1841.69Z" fill="white" fill-opacity="0.05"/>
<path d="M1920 1848.6H1903.35V1850.9H1920V1848.6Z" fill="white" fill-opacity="0.05"/>
<path d="M128.476 1042.57H126.097V1044.88H128.476V1042.57Z" fill="white" fill-opacity="0.05"/>
<path d="M1080.15 1042.57H1077.77V1044.88H1080.15V1042.57Z" fill="white" fill-opacity="0.05"/>
<path d="M366.394 1042.57H364.015V1044.88H366.394V1042.57Z" fill="white" fill-opacity="0.05"/>
<path d="M1318.07 1042.57H1315.69V1044.88H1318.07V1042.57Z" fill="white" fill-opacity="0.05"/>
<path d="M604.313 1042.57H601.934V1044.88H604.313V1042.57Z" fill="white" fill-opacity="0.05"/>
<path d="M1555.99 1042.57H1553.61V1044.88H1555.99V1042.57Z" fill="white" fill-opacity="0.05"/>
<path d="M842.231 1042.57H839.852V1044.88H842.231V1042.57Z" fill="white" fill-opacity="0.05"/>
<path d="M1793.9 1042.57H1791.52V1044.88H1793.9V1042.57Z" fill="white" fill-opacity="0.05"/>
<path d="M128.476 1272.87H126.097V1275.17H128.476V1272.87Z" fill="white" fill-opacity="0.05"/>
<path d="M1080.15 1272.87H1077.77V1275.17H1080.15V1272.87Z" fill="white" fill-opacity="0.05"/>
<path d="M366.394 1272.87H364.015V1275.17H366.394V1272.87Z" fill="white" fill-opacity="0.05"/>
<path d="M1318.07 1272.87H1315.69V1275.17H1318.07V1272.87Z" fill="white" fill-opacity="0.05"/>
<path d="M604.313 1272.87H601.934V1275.17H604.313V1272.87Z" fill="white" fill-opacity="0.05"/>
<path d="M1555.99 1272.87H1553.61V1275.17H1555.99V1272.87Z" fill="white" fill-opacity="0.05"/>
<path d="M842.231 1272.87H839.852V1275.17H842.231V1272.87Z" fill="white" fill-opacity="0.05"/>
<path d="M1793.9 1272.87H1791.52V1275.17H1793.9V1272.87Z" fill="white" fill-opacity="0.05"/>
<path d="M128.476 1503.16H126.097V1505.46H128.476V1503.16Z" fill="white" fill-opacity="0.05"/>
<path d="M1080.15 1503.16H1077.77V1505.46H1080.15V1503.16Z" fill="white" fill-opacity="0.05"/>
<path d="M366.394 1503.16H364.015V1505.46H366.394V1503.16Z" fill="white" fill-opacity="0.05"/>
<path d="M1318.07 1503.16H1315.69V1505.46H1318.07V1503.16Z" fill="white" fill-opacity="0.05"/>
<path d="M604.313 1503.16H601.934V1505.46H604.313V1503.16Z" fill="white" fill-opacity="0.05"/>
<path d="M1555.99 1503.16H1553.61V1505.46H1555.99V1503.16Z" fill="white" fill-opacity="0.05"/>
<path d="M842.231 1503.16H839.852V1505.46H842.231V1503.16Z" fill="white" fill-opacity="0.05"/>
<path d="M1793.9 1503.16H1791.52V1505.46H1793.9V1503.16Z" fill="white" fill-opacity="0.05"/>
<path d="M128.476 1733.45H126.097V1735.75H128.476V1733.45Z" fill="white" fill-opacity="0.05"/>
<path d="M1080.15 1733.45H1077.77V1735.75H1080.15V1733.45Z" fill="white" fill-opacity="0.05"/>
<path d="M366.394 1733.45H364.015V1735.75H366.394V1733.45Z" fill="white" fill-opacity="0.05"/>
<path d="M1318.07 1733.45H1315.69V1735.75H1318.07V1733.45Z" fill="white" fill-opacity="0.05"/>
<path d="M604.313 1733.45H601.934V1735.75H604.313V1733.45Z" fill="white" fill-opacity="0.05"/>
<path d="M1555.99 1733.45H1553.61V1735.75H1555.99V1733.45Z" fill="white" fill-opacity="0.05"/>
<path d="M842.231 1733.45H839.852V1735.75H842.231V1733.45Z" fill="white" fill-opacity="0.05"/>
<path d="M1793.9 1733.45H1791.52V1735.75H1793.9V1733.45Z" fill="white" fill-opacity="0.05"/>
<path opacity="0.5" d="M9.51688 8.0603H7.1377V929.23H9.51688V8.0603Z" fill="white" fill-opacity="0.05"/>
<path opacity="0.2" d="M56.0296 6.90869H53.6504V930.381H56.0296V6.90869Z" fill="white" fill-opacity="0.05"/>
<path opacity="0.2" d="M1007.7 6.90869H1005.32V930.381H1007.7V6.90869Z" fill="white" fill-opacity="0.05"/>
<path opacity="0.2" d="M103.732 6.90869H101.353V930.381H103.732V6.90869Z" fill="white" fill-opacity="0.05"/>
<path opacity="0.2" d="M1055.4 6.90869H1053.03V930.381H1055.4V6.90869Z" fill="white" fill-opacity="0.05"/>
<path opacity="0.2" d="M151.436 6.90869H149.057V930.381H151.436V6.90869Z" fill="white" fill-opacity="0.05"/>
<path opacity="0.2" d="M1103.11 6.90869H1100.73V930.381H1103.11V6.90869Z" fill="white" fill-opacity="0.05"/>
<path opacity="0.2" d="M199.138 6.90869H196.759V930.381H199.138V6.90869Z" fill="white" fill-opacity="0.05"/>
<path opacity="0.2" d="M1150.81 6.90869H1148.43V930.381H1150.81V6.90869Z" fill="white" fill-opacity="0.05"/>
<path opacity="0.5" d="M246.84 6.90869H244.461V930.381H246.84V6.90869Z" fill="white" fill-opacity="0.05"/>
<path opacity="0.5" d="M1198.51 6.90869H1196.13V930.381H1198.51V6.90869Z" fill="white" fill-opacity="0.05"/>
<path opacity="0.2" d="M294.542 6.90869H292.163V930.381H294.542V6.90869Z" fill="white" fill-opacity="0.05"/>
<path opacity="0.2" d="M1246.22 6.90869H1243.84V930.381H1246.22V6.90869Z" fill="white" fill-opacity="0.05"/>
<path opacity="0.2" d="M342.244 6.90869H339.865V930.381H342.244V6.90869Z" fill="white" fill-opacity="0.05"/>
<path opacity="0.2" d="M1293.92 6.90869H1291.54V930.381H1293.92V6.90869Z" fill="white" fill-opacity="0.05"/>
<path opacity="0.2" d="M389.949 6.90869H387.569V930.381H389.949V6.90869Z" fill="white" fill-opacity="0.05"/>
<path opacity="0.2" d="M1341.62 6.90869H1339.24V930.381H1341.62V6.90869Z" fill="white" fill-opacity="0.05"/>
<path opacity="0.2" d="M437.651 6.90869H435.271V930.381H437.651V6.90869Z" fill="white" fill-opacity="0.05"/>
<path opacity="0.2" d="M1389.32 6.90869H1386.94V930.381H1389.32V6.90869Z" fill="white" fill-opacity="0.05"/>
<path opacity="0.5" d="M485.353 6.90869H482.974V930.381H485.353V6.90869Z" fill="white" fill-opacity="0.05"/>
<path opacity="0.5" d="M1437.03 6.90869H1434.65V930.381H1437.03V6.90869Z" fill="white" fill-opacity="0.05"/>
<path opacity="0.2" d="M533.055 6.90869H530.676V930.381H533.055V6.90869Z" fill="white" fill-opacity="0.05"/>
<path opacity="0.2" d="M1484.73 6.90869H1482.35V930.381H1484.73V6.90869Z" fill="white" fill-opacity="0.05"/>
<path opacity="0.2" d="M580.757 6.90869H578.378V930.381H580.757V6.90869Z" fill="white" fill-opacity="0.05"/>
<path opacity="0.2" d="M1532.43 6.90869H1530.05V930.381H1532.43V6.90869Z" fill="white" fill-opacity="0.05"/>
<path opacity="0.2" d="M628.462 6.90869H626.083V930.381H628.462V6.90869Z" fill="white" fill-opacity="0.05"/>
<path opacity="0.2" d="M1580.14 6.90869H1577.76V930.381H1580.14V6.90869Z" fill="white" fill-opacity="0.05"/>
<path opacity="0.2" d="M676.164 6.90869H673.785V930.381H676.164V6.90869Z" fill="white" fill-opacity="0.05"/>
<path opacity="0.2" d="M1627.84 6.90869H1625.46V930.381H1627.84V6.90869Z" fill="white" fill-opacity="0.05"/>
<path opacity="0.5" d="M723.867 6.90869H721.487V930.381H723.867V6.90869Z" fill="white" fill-opacity="0.05"/>
<path opacity="0.5" d="M1675.54 6.90869H1673.16V930.381H1675.54V6.90869Z" fill="white" fill-opacity="0.05"/>
<path opacity="0.2" d="M771.569 6.90869H769.189V930.381H771.569V6.90869Z" fill="white" fill-opacity="0.05"/>
<path opacity="0.2" d="M1723.24 6.90869H1720.86V930.381H1723.24V6.90869Z" fill="white" fill-opacity="0.05"/>
<path opacity="0.2" d="M819.271 6.90869H816.892V930.381H819.271V6.90869Z" fill="white" fill-opacity="0.05"/>
<path opacity="0.2" d="M1770.94 6.90869H1768.56V930.381H1770.94V6.90869Z" fill="white" fill-opacity="0.05"/>
<path opacity="0.2" d="M866.975 6.90869H864.596V930.381H866.975V6.90869Z" fill="white" fill-opacity="0.05"/>
<path opacity="0.2" d="M1818.65 6.90869H1816.27V930.381H1818.65V6.90869Z" fill="white" fill-opacity="0.05"/>
<path opacity="0.2" d="M914.677 6.90869H912.298V930.381H914.677V6.90869Z" fill="white" fill-opacity="0.05"/>
<path opacity="0.2" d="M1866.35 6.90869H1863.97V930.381H1866.35V6.90869Z" fill="white" fill-opacity="0.05"/>
<path opacity="0.5" d="M961.19 8.0603H958.811V929.23H961.19V8.0603Z" fill="white" fill-opacity="0.05"/>
<path opacity="0.5" d="M1912.86 8.0603H1910.48V929.23H1912.86V8.0603Z" fill="white" fill-opacity="0.05"/>
<path opacity="0.5" d="M960 6.90869H8.32715V9.21162H960V6.90869Z" fill="white" fill-opacity="0.05"/>
<path opacity="0.5" d="M1911.67 6.90869H960V9.21162H1911.67V6.90869Z" fill="white" fill-opacity="0.05"/>
<path opacity="0.2" d="M961.19 51.9312H7.1377V54.2341H961.19V51.9312Z" fill="white" fill-opacity="0.05"/>
<path opacity="0.2" d="M1912.86 51.9312H958.811V54.2341H1912.86V51.9312Z" fill="white" fill-opacity="0.05"/>
<path opacity="0.2" d="M961.19 98.1047H7.1377V100.408H961.19V98.1047Z" fill="white" fill-opacity="0.05"/>
<path opacity="0.2" d="M1912.86 98.1047H958.811V100.408H1912.86V98.1047Z" fill="white" fill-opacity="0.05"/>
<path opacity="0.2" d="M961.19 144.278H7.1377V146.581H961.19V144.278Z" fill="white" fill-opacity="0.05"/>
<path opacity="0.2" d="M1912.86 144.278H958.811V146.581H1912.86V144.278Z" fill="white" fill-opacity="0.05"/>
<path opacity="0.2" d="M961.19 190.452H7.1377V192.755H961.19V190.452Z" fill="white" fill-opacity="0.05"/>
<path opacity="0.2" d="M1912.86 190.452H958.811V192.755H1912.86V190.452Z" fill="white" fill-opacity="0.05"/>
<path opacity="0.5" d="M961.19 236.625H7.1377V238.928H961.19V236.625Z" fill="white" fill-opacity="0.05"/>
<path opacity="0.5" d="M1912.86 236.625H958.811V238.928H1912.86V236.625Z" fill="white" fill-opacity="0.05"/>
<path opacity="0.2" d="M961.19 282.799H7.1377V285.102H961.19V282.799Z" fill="white" fill-opacity="0.05"/>
<path opacity="0.2" d="M1912.86 282.799H958.811V285.102H1912.86V282.799Z" fill="white" fill-opacity="0.05"/>
<path opacity="0.2" d="M961.19 328.973H7.1377V331.276H961.19V328.973Z" fill="white" fill-opacity="0.05"/>
<path opacity="0.2" d="M1912.86 328.973H958.811V331.276H1912.86V328.973Z" fill="white" fill-opacity="0.05"/>
<path opacity="0.2" d="M961.19 375.146H7.1377V377.449H961.19V375.146Z" fill="white" fill-opacity="0.05"/>
<path opacity="0.2" d="M1912.86 375.146H958.811V377.449H1912.86V375.146Z" fill="white" fill-opacity="0.05"/>
<path opacity="0.2" d="M961.19 421.32H7.1377V423.623H961.19V421.32Z" fill="white" fill-opacity="0.05"/>
<path opacity="0.2" d="M1912.86 421.32H958.811V423.623H1912.86V421.32Z" fill="white" fill-opacity="0.05"/>
<path opacity="0.5" d="M961.19 467.494H7.1377V469.797H961.19V467.494Z" fill="white" fill-opacity="0.05"/>
<path opacity="0.5" d="M1912.86 467.494H958.811V469.797H1912.86V467.494Z" fill="white" fill-opacity="0.05"/>
<path opacity="0.2" d="M961.19 513.667H7.1377V515.97H961.19V513.667Z" fill="white" fill-opacity="0.05"/>
<path opacity="0.2" d="M1912.86 513.667H958.811V515.97H1912.86V513.667Z" fill="white" fill-opacity="0.05"/>
<path opacity="0.2" d="M961.19 559.841H7.1377V562.144H961.19V559.841Z" fill="white" fill-opacity="0.05"/>
<path opacity="0.2" d="M1912.86 559.841H958.811V562.144H1912.86V559.841Z" fill="white" fill-opacity="0.05"/>
<path opacity="0.2" d="M961.19 606.014H7.1377V608.317H961.19V606.014Z" fill="white" fill-opacity="0.05"/>
<path opacity="0.2" d="M1912.86 606.014H958.811V608.317H1912.86V606.014Z" fill="white" fill-opacity="0.05"/>
<path opacity="0.2" d="M961.19 652.188H7.1377V654.491H961.19V652.188Z" fill="white" fill-opacity="0.05"/>
<path opacity="0.2" d="M1912.86 652.188H958.811V654.491H1912.86V652.188Z" fill="white" fill-opacity="0.05"/>
<path opacity="0.5" d="M961.19 698.362H7.1377V700.665H961.19V698.362Z" fill="white" fill-opacity="0.05"/>
<path opacity="0.5" d="M1912.86 698.362H958.811V700.665H1912.86V698.362Z" fill="white" fill-opacity="0.05"/>
<path opacity="0.2" d="M961.19 744.536H7.1377V746.839H961.19V744.536Z" fill="white" fill-opacity="0.05"/>
<path opacity="0.2" d="M1912.86 744.536H958.811V746.839H1912.86V744.536Z" fill="white" fill-opacity="0.05"/>
<path opacity="0.2" d="M961.19 790.709H7.1377V793.012H961.19V790.709Z" fill="white" fill-opacity="0.05"/>
<path opacity="0.2" d="M1912.86 790.709H958.811V793.012H1912.86V790.709Z" fill="white" fill-opacity="0.05"/>
<path opacity="0.2" d="M961.19 836.882H7.1377V839.185H961.19V836.882Z" fill="white" fill-opacity="0.05"/>
<path opacity="0.2" d="M1912.86 836.882H958.811V839.185H1912.86V836.882Z" fill="white" fill-opacity="0.05"/>
<path opacity="0.2" d="M961.19 883.056H7.1377V885.359H961.19V883.056Z" fill="white" fill-opacity="0.05"/>
<path opacity="0.2" d="M1912.86 883.056H958.811V885.359H1912.86V883.056Z" fill="white" fill-opacity="0.05"/>
<path opacity="0.5" d="M960 928.079H8.32715V930.382H960V928.079Z" fill="white" fill-opacity="0.05"/>
<path opacity="0.5" d="M1911.67 928.079H960V930.382H1911.67V928.079Z" fill="white" fill-opacity="0.05"/>
<path d="M9.51688 0H7.1377V16.1205H9.51688V0Z" fill="white" fill-opacity="0.05"/>
<path d="M16.6543 6.90869H0V9.21162H16.6543V6.90869Z" fill="white" fill-opacity="0.05"/>
<path d="M961.19 0H958.811V16.1205H961.19V0Z" fill="white" fill-opacity="0.05"/>
<path d="M968.327 6.90869H951.673V9.21162H968.327V6.90869Z" fill="white" fill-opacity="0.05"/>
<path d="M1912.86 0H1910.48V16.1205H1912.86V0Z" fill="white" fill-opacity="0.05"/>
<path d="M1920 6.90869H1903.35V9.21162H1920V6.90869Z" fill="white" fill-opacity="0.05"/>
<path d="M9.51688 230.292H7.1377V246.413H9.51688V230.292Z" fill="white" fill-opacity="0.05"/>
<path d="M16.6543 237.201H0V239.504H16.6543V237.201Z" fill="white" fill-opacity="0.05"/>
<path d="M961.19 230.292H958.811V246.413H961.19V230.292Z" fill="white" fill-opacity="0.05"/>
<path d="M968.327 237.201H951.673V239.504H968.327V237.201Z" fill="white" fill-opacity="0.05"/>
<path d="M1912.86 230.292H1910.48V246.413H1912.86V230.292Z" fill="white" fill-opacity="0.05"/>
<path d="M1920 237.201H1903.35V239.504H1920V237.201Z" fill="white" fill-opacity="0.05"/>
<path d="M9.51688 460.585H7.1377V476.705H9.51688V460.585Z" fill="white" fill-opacity="0.05"/>
<path d="M16.6543 467.494H0V469.797H16.6543V467.494Z" fill="white" fill-opacity="0.05"/>
<path d="M961.19 460.585H958.811V476.705H961.19V460.585Z" fill="white" fill-opacity="0.05"/>
<path d="M968.327 467.494H951.673V469.797H968.327V467.494Z" fill="white" fill-opacity="0.05"/>
<path d="M1912.86 460.585H1910.48V476.705H1912.86V460.585Z" fill="white" fill-opacity="0.05"/>
<path d="M1920 467.494H1903.35V469.797H1920V467.494Z" fill="white" fill-opacity="0.05"/>
<path d="M9.51688 690.877H7.1377V706.998H9.51688V690.877Z" fill="white" fill-opacity="0.05"/>
<path d="M16.6543 697.786H0V700.089H16.6543V697.786Z" fill="white" fill-opacity="0.05"/>
<path d="M961.19 690.877H958.811V706.998H961.19V690.877Z" fill="white" fill-opacity="0.05"/>
<path d="M968.327 697.786H951.673V700.089H968.327V697.786Z" fill="white" fill-opacity="0.05"/>
<path d="M1912.86 690.877H1910.48V706.998H1912.86V690.877Z" fill="white" fill-opacity="0.05"/>
<path d="M1920 697.786H1903.35V700.089H1920V697.786Z" fill="white" fill-opacity="0.05"/>
<path d="M9.51688 921.17H7.1377V937.29H9.51688V921.17Z" fill="white" fill-opacity="0.05"/>
<path d="M16.6543 928.078H0V930.381H16.6543V928.078Z" fill="white" fill-opacity="0.05"/>
<path d="M247.435 0H245.056V16.1205H247.435V0Z" fill="white" fill-opacity="0.05"/>
<path d="M254.572 6.90869H237.918V9.21162H254.572V6.90869Z" fill="white" fill-opacity="0.05"/>
<path d="M1199.11 0H1196.73V16.1205H1199.11V0Z" fill="white" fill-opacity="0.05"/>
<path d="M1206.25 6.90869H1189.59V9.21162H1206.25V6.90869Z" fill="white" fill-opacity="0.05"/>
<path d="M247.435 230.292H245.056V246.413H247.435V230.292Z" fill="white" fill-opacity="0.05"/>
<path d="M254.572 237.201H237.918V239.504H254.572V237.201Z" fill="white" fill-opacity="0.05"/>
<path d="M1199.11 230.292H1196.73V246.413H1199.11V230.292Z" fill="white" fill-opacity="0.05"/>
<path d="M1206.25 237.201H1189.59V239.504H1206.25V237.201Z" fill="white" fill-opacity="0.05"/>
<path d="M247.435 460.585H245.056V476.705H247.435V460.585Z" fill="white" fill-opacity="0.05"/>
<path d="M254.572 467.494H237.918V469.797H254.572V467.494Z" fill="white" fill-opacity="0.05"/>
<path d="M1199.11 460.585H1196.73V476.705H1199.11V460.585Z" fill="white" fill-opacity="0.05"/>
<path d="M1206.25 467.494H1189.59V469.797H1206.25V467.494Z" fill="white" fill-opacity="0.05"/>
<path d="M247.435 690.877H245.056V706.998H247.435V690.877Z" fill="white" fill-opacity="0.05"/>
<path d="M254.572 697.786H237.918V700.089H254.572V697.786Z" fill="white" fill-opacity="0.05"/>
<path d="M1199.11 690.877H1196.73V706.998H1199.11V690.877Z" fill="white" fill-opacity="0.05"/>
<path d="M1206.25 697.786H1189.59V700.089H1206.25V697.786Z" fill="white" fill-opacity="0.05"/>
<path d="M247.435 921.17H245.056V937.29H247.435V921.17Z" fill="white" fill-opacity="0.05"/>
<path d="M254.572 928.078H237.918V930.381H254.572V928.078Z" fill="white" fill-opacity="0.05"/>
<path d="M1199.11 921.17H1196.73V937.29H1199.11V921.17Z" fill="white" fill-opacity="0.05"/>
<path d="M1206.25 928.078H1189.59V930.381H1206.25V928.078Z" fill="white" fill-opacity="0.05"/>
<path d="M485.354 0H482.975V16.1205H485.354V0Z" fill="white" fill-opacity="0.05"/>
<path d="M492.491 6.90869H475.837V9.21162H492.491V6.90869Z" fill="white" fill-opacity="0.05"/>
<path d="M1437.03 0H1434.65V16.1205H1437.03V0Z" fill="white" fill-opacity="0.05"/>
<path d="M1444.16 6.90869H1427.51V9.21162H1444.16V6.90869Z" fill="white" fill-opacity="0.05"/>
<path d="M485.354 230.292H482.975V246.413H485.354V230.292Z" fill="white" fill-opacity="0.05"/>
<path d="M492.491 237.201H475.837V239.504H492.491V237.201Z" fill="white" fill-opacity="0.05"/>
<path d="M1437.03 230.292H1434.65V246.413H1437.03V230.292Z" fill="white" fill-opacity="0.05"/>
<path d="M1444.16 237.201H1427.51V239.504H1444.16V237.201Z" fill="white" fill-opacity="0.05"/>
<path d="M485.354 460.585H482.975V476.705H485.354V460.585Z" fill="white" fill-opacity="0.05"/>
<path d="M492.491 467.494H475.837V469.797H492.491V467.494Z" fill="white" fill-opacity="0.05"/>
<path d="M1437.03 460.585H1434.65V476.705H1437.03V460.585Z" fill="white" fill-opacity="0.05"/>
<path d="M1444.16 467.494H1427.51V469.797H1444.16V467.494Z" fill="white" fill-opacity="0.05"/>
<path d="M485.354 690.877H482.975V706.998H485.354V690.877Z" fill="white" fill-opacity="0.05"/>
<path d="M492.491 697.786H475.837V700.089H492.491V697.786Z" fill="white" fill-opacity="0.05"/>
<path d="M1437.03 690.877H1434.65V706.998H1437.03V690.877Z" fill="white" fill-opacity="0.05"/>
<path d="M1444.16 697.786H1427.51V700.089H1444.16V697.786Z" fill="white" fill-opacity="0.05"/>
<path d="M485.354 921.17H482.975V937.29H485.354V921.17Z" fill="white" fill-opacity="0.05"/>
<path d="M492.491 928.078H475.837V930.381H492.491V928.078Z" fill="white" fill-opacity="0.05"/>
<path d="M1437.03 921.17H1434.65V937.29H1437.03V921.17Z" fill="white" fill-opacity="0.05"/>
<path d="M1444.16 928.078H1427.51V930.381H1444.16V928.078Z" fill="white" fill-opacity="0.05"/>
<path d="M723.27 0H720.891V16.1205H723.27V0Z" fill="white" fill-opacity="0.05"/>
<path d="M730.407 6.90869H713.753V9.21162H730.407V6.90869Z" fill="white" fill-opacity="0.05"/>
<path d="M1674.94 0H1672.57V16.1205H1674.94V0Z" fill="white" fill-opacity="0.05"/>
<path d="M1682.08 6.90869H1665.43V9.21162H1682.08V6.90869Z" fill="white" fill-opacity="0.05"/>
<path d="M723.27 230.292H720.891V246.413H723.27V230.292Z" fill="white" fill-opacity="0.05"/>
<path d="M730.407 237.201H713.753V239.504H730.407V237.201Z" fill="white" fill-opacity="0.05"/>
<path d="M1674.94 230.292H1672.57V246.413H1674.94V230.292Z" fill="white" fill-opacity="0.05"/>
<path d="M1682.08 237.201H1665.43V239.504H1682.08V237.201Z" fill="white" fill-opacity="0.05"/>
<path d="M723.27 460.585H720.891V476.705H723.27V460.585Z" fill="white" fill-opacity="0.05"/>
<path d="M730.407 467.494H713.753V469.797H730.407V467.494Z" fill="white" fill-opacity="0.05"/>
<path d="M1674.94 460.585H1672.57V476.705H1674.94V460.585Z" fill="white" fill-opacity="0.05"/>
<path d="M1682.08 467.494H1665.43V469.797H1682.08V467.494Z" fill="white" fill-opacity="0.05"/>
<path d="M723.27 690.877H720.891V706.998H723.27V690.877Z" fill="white" fill-opacity="0.05"/>
<path d="M730.407 697.786H713.753V700.089H730.407V697.786Z" fill="white" fill-opacity="0.05"/>
<path d="M1674.94 690.877H1672.57V706.998H1674.94V690.877Z" fill="white" fill-opacity="0.05"/>
<path d="M1682.08 697.786H1665.43V700.089H1682.08V697.786Z" fill="white" fill-opacity="0.05"/>
<path d="M723.27 921.17H720.891V937.29H723.27V921.17Z" fill="white" fill-opacity="0.05"/>
<path d="M730.407 928.078H713.753V930.381H730.407V928.078Z" fill="white" fill-opacity="0.05"/>
<path d="M1674.94 921.17H1672.57V937.29H1674.94V921.17Z" fill="white" fill-opacity="0.05"/>
<path d="M1682.08 928.078H1665.43V930.381H1682.08V928.078Z" fill="white" fill-opacity="0.05"/>
<path d="M961.19 921.17H958.811V937.29H961.19V921.17Z" fill="white" fill-opacity="0.05"/>
<path d="M968.327 928.078H951.673V930.381H968.327V928.078Z" fill="white" fill-opacity="0.05"/>
<path d="M1912.86 921.17H1910.48V937.29H1912.86V921.17Z" fill="white" fill-opacity="0.05"/>
<path d="M1920 928.078H1903.35V930.381H1920V928.078Z" fill="white" fill-opacity="0.05"/>
<path d="M128.476 122.055H126.097V124.358H128.476V122.055Z" fill="white" fill-opacity="0.05"/>
<path d="M1080.15 122.055H1077.77V124.358H1080.15V122.055Z" fill="white" fill-opacity="0.05"/>
<path d="M366.394 122.055H364.015V124.358H366.394V122.055Z" fill="white" fill-opacity="0.05"/>
<path d="M1318.07 122.055H1315.69V124.358H1318.07V122.055Z" fill="white" fill-opacity="0.05"/>
<path d="M604.313 122.055H601.934V124.358H604.313V122.055Z" fill="white" fill-opacity="0.05"/>
<path d="M1555.99 122.055H1553.61V124.358H1555.99V122.055Z" fill="white" fill-opacity="0.05"/>
<path d="M842.231 122.055H839.852V124.358H842.231V122.055Z" fill="white" fill-opacity="0.05"/>
<path d="M1793.9 122.055H1791.52V124.358H1793.9V122.055Z" fill="white" fill-opacity="0.05"/>
<path d="M128.476 352.347H126.097V354.65H128.476V352.347Z" fill="white" fill-opacity="0.05"/>
<path d="M1080.15 352.347H1077.77V354.65H1080.15V352.347Z" fill="white" fill-opacity="0.05"/>
<path d="M366.394 352.347H364.015V354.65H366.394V352.347Z" fill="white" fill-opacity="0.05"/>
<path d="M1318.07 352.347H1315.69V354.65H1318.07V352.347Z" fill="white" fill-opacity="0.05"/>
<path d="M604.313 352.347H601.934V354.65H604.313V352.347Z" fill="white" fill-opacity="0.05"/>
<path d="M1555.99 352.347H1553.61V354.65H1555.99V352.347Z" fill="white" fill-opacity="0.05"/>
<path d="M842.231 352.347H839.852V354.65H842.231V352.347Z" fill="white" fill-opacity="0.05"/>
<path d="M1793.9 352.347H1791.52V354.65H1793.9V352.347Z" fill="white" fill-opacity="0.05"/>
<path d="M128.476 582.64H126.097V584.943H128.476V582.64Z" fill="white" fill-opacity="0.05"/>
<path d="M1080.15 582.64H1077.77V584.943H1080.15V582.64Z" fill="white" fill-opacity="0.05"/>
<path d="M366.394 582.64H364.015V584.943H366.394V582.64Z" fill="white" fill-opacity="0.05"/>
<path d="M1318.07 582.64H1315.69V584.943H1318.07V582.64Z" fill="white" fill-opacity="0.05"/>
<path d="M604.313 582.64H601.934V584.943H604.313V582.64Z" fill="white" fill-opacity="0.05"/>
<path d="M1555.99 582.64H1553.61V584.943H1555.99V582.64Z" fill="white" fill-opacity="0.05"/>
<path d="M842.231 582.64H839.852V584.943H842.231V582.64Z" fill="white" fill-opacity="0.05"/>
<path d="M1793.9 582.64H1791.52V584.943H1793.9V582.64Z" fill="white" fill-opacity="0.05"/>
<path d="M128.476 812.932H126.097V815.235H128.476V812.932Z" fill="white" fill-opacity="0.05"/>
<path d="M1080.15 812.932H1077.77V815.235H1080.15V812.932Z" fill="white" fill-opacity="0.05"/>
<path d="M366.394 812.932H364.015V815.235H366.394V812.932Z" fill="white" fill-opacity="0.05"/>
<path d="M1318.07 812.932H1315.69V815.235H1318.07V812.932Z" fill="white" fill-opacity="0.05"/>
<path d="M604.313 812.932H601.934V815.235H604.313V812.932Z" fill="white" fill-opacity="0.05"/>
<path d="M1555.99 812.932H1553.61V815.235H1555.99V812.932Z" fill="white" fill-opacity="0.05"/>
<path d="M842.231 812.932H839.852V815.235H842.231V812.932Z" fill="white" fill-opacity="0.05"/>
<path d="M1793.9 812.932H1791.52V815.235H1793.9V812.932Z" fill="white" fill-opacity="0.05"/>
</svg>
