<svg width="1920" height="969" viewBox="0 0 1920 969" fill="none" xmlns="http://www.w3.org/2000/svg">
<path opacity="0.5" d="M9.51688 8.32715H7.1377V960H9.51688V8.32715Z" fill="white" fill-opacity="0.15"/>
<path opacity="0.2" d="M56.0296 7.13757H53.6504V961.19H56.0296V7.13757Z" fill="white" fill-opacity="0.15"/>
<path opacity="0.2" d="M1007.7 7.13757H1005.32V961.19H1007.7V7.13757Z" fill="white" fill-opacity="0.15"/>
<path opacity="0.2" d="M103.732 7.13757H101.353V961.19H103.732V7.13757Z" fill="white" fill-opacity="0.15"/>
<path opacity="0.2" d="M1055.4 7.13754H1053.03V961.19H1055.4V7.13754Z" fill="white" fill-opacity="0.15"/>
<path opacity="0.2" d="M151.436 7.13754H149.057V961.19H151.436V7.13754Z" fill="white" fill-opacity="0.15"/>
<path opacity="0.2" d="M1103.11 7.13754H1100.73V961.19H1103.11V7.13754Z" fill="white" fill-opacity="0.15"/>
<path opacity="0.2" d="M199.138 7.13754H196.759V961.19H199.138V7.13754Z" fill="white" fill-opacity="0.15"/>
<path opacity="0.2" d="M1150.81 7.13754H1148.43V961.19H1150.81V7.13754Z" fill="white" fill-opacity="0.15"/>
<path opacity="0.5" d="M246.84 7.13754H244.461V961.19H246.84V7.13754Z" fill="white" fill-opacity="0.15"/>
<path opacity="0.5" d="M1198.51 7.13754H1196.13V961.19H1198.51V7.13754Z" fill="white" fill-opacity="0.15"/>
<path opacity="0.2" d="M294.542 7.13754H292.163V961.19H294.542V7.13754Z" fill="white" fill-opacity="0.15"/>
<path opacity="0.2" d="M1246.22 7.13754H1243.84V961.19H1246.22V7.13754Z" fill="white" fill-opacity="0.15"/>
<path opacity="0.2" d="M342.244 7.13754H339.865V961.19H342.244V7.13754Z" fill="white" fill-opacity="0.15"/>
<path opacity="0.2" d="M1293.92 7.13754H1291.54V961.19H1293.92V7.13754Z" fill="white" fill-opacity="0.15"/>
<path opacity="0.2" d="M389.949 7.13757H387.569V961.19H389.949V7.13757Z" fill="white" fill-opacity="0.15"/>
<path opacity="0.2" d="M1341.62 7.13754H1339.24V961.19H1341.62V7.13754Z" fill="white" fill-opacity="0.15"/>
<path opacity="0.2" d="M437.651 7.13757H435.271V961.19H437.651V7.13757Z" fill="white" fill-opacity="0.15"/>
<path opacity="0.2" d="M1389.32 7.13754H1386.94V961.19H1389.32V7.13754Z" fill="white" fill-opacity="0.15"/>
<path opacity="0.5" d="M485.353 7.13757H482.974V961.19H485.353V7.13757Z" fill="white" fill-opacity="0.15"/>
<path opacity="0.5" d="M1437.03 7.13754H1434.65V961.19H1437.03V7.13754Z" fill="white" fill-opacity="0.15"/>
<path opacity="0.2" d="M533.055 7.13757H530.676V961.19H533.055V7.13757Z" fill="white" fill-opacity="0.15"/>
<path opacity="0.2" d="M1484.73 7.13754H1482.35V961.19H1484.73V7.13754Z" fill="white" fill-opacity="0.15"/>
<path opacity="0.2" d="M580.757 7.13757H578.378V961.19H580.757V7.13757Z" fill="white" fill-opacity="0.15"/>
<path opacity="0.2" d="M1532.43 7.13754H1530.05V961.19H1532.43V7.13754Z" fill="white" fill-opacity="0.15"/>
<path opacity="0.2" d="M628.462 7.13757H626.083V961.19H628.462V7.13757Z" fill="white" fill-opacity="0.15"/>
<path opacity="0.2" d="M1580.14 7.13754H1577.76V961.19H1580.14V7.13754Z" fill="white" fill-opacity="0.15"/>
<path opacity="0.2" d="M676.164 7.13757H673.785V961.19H676.164V7.13757Z" fill="white" fill-opacity="0.15"/>
<path opacity="0.2" d="M1627.84 7.13754H1625.46V961.19H1627.84V7.13754Z" fill="white" fill-opacity="0.15"/>
<path opacity="0.5" d="M723.866 7.13757H721.487V961.19H723.866V7.13757Z" fill="white" fill-opacity="0.15"/>
<path opacity="0.5" d="M1675.54 7.13754H1673.16V961.19H1675.54V7.13754Z" fill="white" fill-opacity="0.15"/>
<path opacity="0.2" d="M771.569 7.13757H769.189V961.19H771.569V7.13757Z" fill="white" fill-opacity="0.15"/>
<path opacity="0.2" d="M1723.24 7.13754H1720.86V961.19H1723.24V7.13754Z" fill="white" fill-opacity="0.15"/>
<path opacity="0.2" d="M819.271 7.13757H816.892V961.19H819.271V7.13757Z" fill="white" fill-opacity="0.15"/>
<path opacity="0.2" d="M1770.94 7.13754H1768.56V961.19H1770.94V7.13754Z" fill="white" fill-opacity="0.15"/>
<path opacity="0.2" d="M866.975 7.13754H864.596V961.19H866.975V7.13754Z" fill="white" fill-opacity="0.15"/>
<path opacity="0.2" d="M1818.65 7.13754H1816.27V961.19H1818.65V7.13754Z" fill="white" fill-opacity="0.15"/>
<path opacity="0.2" d="M914.677 7.13754H912.298V961.19H914.677V7.13754Z" fill="white" fill-opacity="0.15"/>
<path opacity="0.2" d="M1866.35 7.13754H1863.97V961.19H1866.35V7.13754Z" fill="white" fill-opacity="0.15"/>
<path opacity="0.5" d="M961.19 8.32715H958.811V960H961.19V8.32715Z" fill="white" fill-opacity="0.15"/>
<path opacity="0.5" d="M1912.86 8.32715H1910.48V960H1912.86V8.32715Z" fill="white" fill-opacity="0.15"/>
<path opacity="0.5" d="M960 7.13754H8.32715V9.51672H960V7.13754Z" fill="white" fill-opacity="0.15"/>
<path opacity="0.5" d="M1911.67 7.13754H960V9.51672H1911.67V7.13754Z" fill="white" fill-opacity="0.15"/>
<path opacity="0.2" d="M961.19 53.6507H7.1377V56.0298H961.19V53.6507Z" fill="white" fill-opacity="0.15"/>
<path opacity="0.2" d="M1912.86 53.6507H958.811V56.0298H1912.86V53.6507Z" fill="white" fill-opacity="0.15"/>
<path opacity="0.2" d="M961.19 101.353H7.1377V103.733H961.19V101.353Z" fill="white" fill-opacity="0.15"/>
<path opacity="0.2" d="M1912.86 101.353H958.811V103.733H1912.86V101.353Z" fill="white" fill-opacity="0.15"/>
<path opacity="0.2" d="M961.19 149.056H7.1377V151.435H961.19V149.056Z" fill="white" fill-opacity="0.15"/>
<path opacity="0.2" d="M1912.86 149.056H958.811V151.435H1912.86V149.056Z" fill="white" fill-opacity="0.15"/>
<path opacity="0.2" d="M961.19 196.758H7.1377V199.137H961.19V196.758Z" fill="white" fill-opacity="0.15"/>
<path opacity="0.2" d="M1912.86 196.758H958.811V199.137H1912.86V196.758Z" fill="white" fill-opacity="0.15"/>
<path opacity="0.5" d="M961.19 244.461H7.1377V246.84H961.19V244.461Z" fill="white" fill-opacity="0.15"/>
<path opacity="0.5" d="M1912.86 244.461H958.811V246.84H1912.86V244.461Z" fill="white" fill-opacity="0.15"/>
<path opacity="0.2" d="M961.19 292.164H7.1377V294.543H961.19V292.164Z" fill="white" fill-opacity="0.15"/>
<path opacity="0.2" d="M1912.86 292.164H958.811V294.543H1912.86V292.164Z" fill="white" fill-opacity="0.15"/>
<path opacity="0.2" d="M961.19 339.866H7.1377V342.246H961.19V339.866Z" fill="white" fill-opacity="0.15"/>
<path opacity="0.2" d="M1912.86 339.866H958.811V342.246H1912.86V339.866Z" fill="white" fill-opacity="0.15"/>
<path opacity="0.2" d="M961.19 387.569H7.1377V389.948H961.19V387.569Z" fill="white" fill-opacity="0.15"/>
<path opacity="0.2" d="M1912.86 387.569H958.811V389.948H1912.86V387.569Z" fill="white" fill-opacity="0.15"/>
<path opacity="0.2" d="M961.19 435.271H7.1377V437.65H961.19V435.271Z" fill="white" fill-opacity="0.15"/>
<path opacity="0.2" d="M1912.86 435.271H958.811V437.65H1912.86V435.271Z" fill="white" fill-opacity="0.15"/>
<path opacity="0.5" d="M961.19 482.974H7.1377V485.353H961.19V482.974Z" fill="white" fill-opacity="0.15"/>
<path opacity="0.5" d="M1912.86 482.974H958.811V485.353H1912.86V482.974Z" fill="white" fill-opacity="0.15"/>
<path opacity="0.2" d="M961.19 530.677H7.1377V533.056H961.19V530.677Z" fill="white" fill-opacity="0.15"/>
<path opacity="0.2" d="M1912.86 530.677H958.811V533.056H1912.86V530.677Z" fill="white" fill-opacity="0.15"/>
<path opacity="0.2" d="M961.19 578.379H7.1377V580.759H961.19V578.379Z" fill="white" fill-opacity="0.15"/>
<path opacity="0.2" d="M1912.86 578.379H958.811V580.759H1912.86V578.379Z" fill="white" fill-opacity="0.15"/>
<path opacity="0.2" d="M961.19 626.082H7.1377V628.461H961.19V626.082Z" fill="white" fill-opacity="0.15"/>
<path opacity="0.2" d="M1912.86 626.082H958.811V628.461H1912.86V626.082Z" fill="white" fill-opacity="0.15"/>
<path opacity="0.2" d="M961.19 673.784H7.1377V676.163H961.19V673.784Z" fill="white" fill-opacity="0.15"/>
<path opacity="0.2" d="M1912.86 673.784H958.811V676.163H1912.86V673.784Z" fill="white" fill-opacity="0.15"/>
<path opacity="0.5" d="M961.19 721.487H7.1377V723.866H961.19V721.487Z" fill="white" fill-opacity="0.15"/>
<path opacity="0.5" d="M1912.86 721.487H958.811V723.866H1912.86V721.487Z" fill="white" fill-opacity="0.15"/>
<path opacity="0.2" d="M961.19 769.19H7.1377V771.569H961.19V769.19Z" fill="white" fill-opacity="0.15"/>
<path opacity="0.2" d="M1912.86 769.19H958.811V771.569H1912.86V769.19Z" fill="white" fill-opacity="0.15"/>
<path opacity="0.2" d="M961.19 816.892H7.1377V819.272H961.19V816.892Z" fill="white" fill-opacity="0.15"/>
<path opacity="0.2" d="M1912.86 816.892H958.811V819.272H1912.86V816.892Z" fill="white" fill-opacity="0.15"/>
<path opacity="0.2" d="M961.19 864.595H7.1377V866.974H961.19V864.595Z" fill="white" fill-opacity="0.15"/>
<path opacity="0.2" d="M1912.86 864.595H958.811V866.974H1912.86V864.595Z" fill="white" fill-opacity="0.15"/>
<path opacity="0.2" d="M961.19 912.297H7.1377V914.676H961.19V912.297Z" fill="white" fill-opacity="0.15"/>
<path opacity="0.2" d="M1912.86 912.297H958.811V914.676H1912.86V912.297Z" fill="white" fill-opacity="0.15"/>
<path opacity="0.5" d="M960 958.81H8.32715V961.19H960V958.81Z" fill="white" fill-opacity="0.15"/>
<path opacity="0.5" d="M1911.67 958.81H960V961.19H1911.67V958.81Z" fill="white" fill-opacity="0.15"/>
<path d="M9.51688 0H7.1377V16.6543H9.51688V0Z" fill="white" fill-opacity="0.15"/>
<path d="M16.6543 7.13754H0V9.51672H16.6543V7.13754Z" fill="white" fill-opacity="0.15"/>
<path d="M961.19 0H958.811V16.6543H961.19V0Z" fill="white" fill-opacity="0.15"/>
<path d="M968.327 7.13754H951.673V9.51672H968.327V7.13754Z" fill="white" fill-opacity="0.15"/>
<path d="M1912.86 0H1910.48V16.6543H1912.86V0Z" fill="white" fill-opacity="0.15"/>
<path d="M1920 7.13754H1903.35V9.51672H1920V7.13754Z" fill="white" fill-opacity="0.15"/>
<path d="M9.51688 237.918H7.1377V254.572H9.51688V237.918Z" fill="white" fill-opacity="0.15"/>
<path d="M16.6543 245.056H0V247.435H16.6543V245.056Z" fill="white" fill-opacity="0.15"/>
<path d="M961.19 237.918H958.811V254.572H961.19V237.918Z" fill="white" fill-opacity="0.15"/>
<path d="M968.327 245.056H951.673V247.435H968.327V245.056Z" fill="white" fill-opacity="0.15"/>
<path d="M1912.86 237.918H1910.48V254.572H1912.86V237.918Z" fill="white" fill-opacity="0.15"/>
<path d="M1920 245.056H1903.35V247.435H1920V245.056Z" fill="white" fill-opacity="0.15"/>
<path d="M9.51688 475.836H7.1377V492.491H9.51688V475.836Z" fill="white" fill-opacity="0.15"/>
<path d="M16.6543 482.974H0V485.353H16.6543V482.974Z" fill="white" fill-opacity="0.15"/>
<path d="M961.19 475.836H958.811V492.491H961.19V475.836Z" fill="white" fill-opacity="0.15"/>
<path d="M968.327 482.974H951.673V485.353H968.327V482.974Z" fill="white" fill-opacity="0.15"/>
<path d="M1912.86 475.836H1910.48V492.491H1912.86V475.836Z" fill="white" fill-opacity="0.15"/>
<path d="M1920 482.974H1903.35V485.353H1920V482.974Z" fill="white" fill-opacity="0.15"/>
<path d="M9.51688 713.755H7.1377V730.409H9.51688V713.755Z" fill="white" fill-opacity="0.15"/>
<path d="M16.6543 720.892H0V723.271H16.6543V720.892Z" fill="white" fill-opacity="0.15"/>
<path d="M961.19 713.755H958.811V730.409H961.19V713.755Z" fill="white" fill-opacity="0.15"/>
<path d="M968.327 720.892H951.673V723.271H968.327V720.892Z" fill="white" fill-opacity="0.15"/>
<path d="M1912.86 713.755H1910.48V730.409H1912.86V713.755Z" fill="white" fill-opacity="0.15"/>
<path d="M1920 720.892H1903.35V723.271H1920V720.892Z" fill="white" fill-opacity="0.15"/>
<path d="M9.51688 951.673H7.1377V968.327H9.51688V951.673Z" fill="white" fill-opacity="0.15"/>
<path d="M16.6543 958.81H0V961.19H16.6543V958.81Z" fill="white" fill-opacity="0.15"/>
<path d="M247.435 0H245.056V16.6543H247.435V0Z" fill="white" fill-opacity="0.15"/>
<path d="M254.572 7.13754H237.918V9.51672H254.572V7.13754Z" fill="white" fill-opacity="0.15"/>
<path d="M1199.11 0H1196.73V16.6543H1199.11V0Z" fill="white" fill-opacity="0.15"/>
<path d="M1206.25 7.13754H1189.59V9.51672H1206.25V7.13754Z" fill="white" fill-opacity="0.15"/>
<path d="M247.435 237.918H245.056V254.572H247.435V237.918Z" fill="white" fill-opacity="0.15"/>
<path d="M254.572 245.056H237.918V247.435H254.572V245.056Z" fill="white" fill-opacity="0.15"/>
<path d="M1199.11 237.918H1196.73V254.572H1199.11V237.918Z" fill="white" fill-opacity="0.15"/>
<path d="M1206.25 245.056H1189.59V247.435H1206.25V245.056Z" fill="white" fill-opacity="0.15"/>
<path d="M247.435 475.836H245.056V492.491H247.435V475.836Z" fill="white" fill-opacity="0.15"/>
<path d="M254.572 482.974H237.918V485.353H254.572V482.974Z" fill="white" fill-opacity="0.15"/>
<path d="M1199.11 475.836H1196.73V492.491H1199.11V475.836Z" fill="white" fill-opacity="0.15"/>
<path d="M1206.25 482.974H1189.59V485.353H1206.25V482.974Z" fill="white" fill-opacity="0.15"/>
<path d="M247.435 713.755H245.056V730.409H247.435V713.755Z" fill="white" fill-opacity="0.15"/>
<path d="M254.572 720.892H237.918V723.271H254.572V720.892Z" fill="white" fill-opacity="0.15"/>
<path d="M1199.11 713.755H1196.73V730.409H1199.11V713.755Z" fill="white" fill-opacity="0.15"/>
<path d="M1206.25 720.892H1189.59V723.271H1206.25V720.892Z" fill="white" fill-opacity="0.15"/>
<path d="M247.435 951.673H245.056V968.327H247.435V951.673Z" fill="white" fill-opacity="0.15"/>
<path d="M254.572 958.81H237.918V961.19H254.572V958.81Z" fill="white" fill-opacity="0.15"/>
<path d="M1199.11 951.673H1196.73V968.327H1199.11V951.673Z" fill="white" fill-opacity="0.15"/>
<path d="M1206.25 958.81H1189.59V961.19H1206.25V958.81Z" fill="white" fill-opacity="0.15"/>
<path d="M485.354 0H482.975V16.6543H485.354V0Z" fill="white" fill-opacity="0.15"/>
<path d="M492.491 7.13754H475.837V9.51672H492.491V7.13754Z" fill="white" fill-opacity="0.15"/>
<path d="M1437.03 0H1434.65V16.6543H1437.03V0Z" fill="white" fill-opacity="0.15"/>
<path d="M1444.16 7.13754H1427.51V9.51672H1444.16V7.13754Z" fill="white" fill-opacity="0.15"/>
<path d="M485.354 237.918H482.975V254.572H485.354V237.918Z" fill="white" fill-opacity="0.15"/>
<path d="M492.491 245.056H475.837V247.435H492.491V245.056Z" fill="white" fill-opacity="0.15"/>
<path d="M1437.03 237.918H1434.65V254.572H1437.03V237.918Z" fill="white" fill-opacity="0.15"/>
<path d="M1444.16 245.056H1427.51V247.435H1444.16V245.056Z" fill="white" fill-opacity="0.15"/>
<path d="M485.354 475.836H482.975V492.491H485.354V475.836Z" fill="white" fill-opacity="0.15"/>
<path d="M492.491 482.974H475.837V485.353H492.491V482.974Z" fill="white" fill-opacity="0.15"/>
<path d="M1437.03 475.836H1434.65V492.491H1437.03V475.836Z" fill="white" fill-opacity="0.15"/>
<path d="M1444.16 482.974H1427.51V485.353H1444.16V482.974Z" fill="white" fill-opacity="0.15"/>
<path d="M485.354 713.755H482.975V730.409H485.354V713.755Z" fill="white" fill-opacity="0.15"/>
<path d="M492.491 720.892H475.837V723.271H492.491V720.892Z" fill="white" fill-opacity="0.15"/>
<path d="M1437.03 713.755H1434.65V730.409H1437.03V713.755Z" fill="white" fill-opacity="0.15"/>
<path d="M1444.16 720.892H1427.51V723.271H1444.16V720.892Z" fill="white" fill-opacity="0.15"/>
<path d="M485.354 951.673H482.975V968.327H485.354V951.673Z" fill="white" fill-opacity="0.15"/>
<path d="M492.491 958.81H475.837V961.19H492.491V958.81Z" fill="white" fill-opacity="0.15"/>
<path d="M1437.03 951.673H1434.65V968.327H1437.03V951.673Z" fill="white" fill-opacity="0.15"/>
<path d="M1444.16 958.81H1427.51V961.19H1444.16V958.81Z" fill="white" fill-opacity="0.15"/>
<path d="M723.271 0H720.892V16.6543H723.271V0Z" fill="white" fill-opacity="0.15"/>
<path d="M730.408 7.13754H713.754V9.51672H730.408V7.13754Z" fill="white" fill-opacity="0.15"/>
<path d="M1674.94 0H1672.56V16.6543H1674.94V0Z" fill="white" fill-opacity="0.15"/>
<path d="M1682.08 7.13754H1665.43V9.51672H1682.08V7.13754Z" fill="white" fill-opacity="0.15"/>
<path d="M723.271 237.918H720.892V254.572H723.271V237.918Z" fill="white" fill-opacity="0.15"/>
<path d="M730.408 245.056H713.754V247.435H730.408V245.056Z" fill="white" fill-opacity="0.15"/>
<path d="M1674.94 237.918H1672.56V254.572H1674.94V237.918Z" fill="white" fill-opacity="0.15"/>
<path d="M1682.08 245.056H1665.43V247.435H1682.08V245.056Z" fill="white" fill-opacity="0.15"/>
<path d="M723.271 475.836H720.892V492.491H723.271V475.836Z" fill="white" fill-opacity="0.15"/>
<path d="M730.408 482.974H713.754V485.353H730.408V482.974Z" fill="white" fill-opacity="0.15"/>
<path d="M1674.94 475.836H1672.56V492.491H1674.94V475.836Z" fill="white" fill-opacity="0.15"/>
<path d="M1682.08 482.974H1665.43V485.353H1682.08V482.974Z" fill="white" fill-opacity="0.15"/>
<path d="M723.271 713.755H720.892V730.409H723.271V713.755Z" fill="white" fill-opacity="0.15"/>
<path d="M730.408 720.892H713.754V723.271H730.408V720.892Z" fill="white" fill-opacity="0.15"/>
<path d="M1674.94 713.755H1672.56V730.409H1674.94V713.755Z" fill="white" fill-opacity="0.15"/>
<path d="M1682.08 720.892H1665.43V723.271H1682.08V720.892Z" fill="white" fill-opacity="0.15"/>
<path d="M723.271 951.673H720.892V968.327H723.271V951.673Z" fill="white" fill-opacity="0.15"/>
<path d="M730.408 958.81H713.754V961.19H730.408V958.81Z" fill="white" fill-opacity="0.15"/>
<path d="M1674.94 951.673H1672.56V968.327H1674.94V951.673Z" fill="white" fill-opacity="0.15"/>
<path d="M1682.08 958.81H1665.43V961.19H1682.08V958.81Z" fill="white" fill-opacity="0.15"/>
<path d="M961.19 951.673H958.811V968.327H961.19V951.673Z" fill="white" fill-opacity="0.15"/>
<path d="M968.327 958.81H951.673V961.19H968.327V958.81Z" fill="white" fill-opacity="0.15"/>
<path d="M1912.86 951.673H1910.48V968.327H1912.86V951.673Z" fill="white" fill-opacity="0.15"/>
<path d="M1920 958.81H1903.35V961.19H1920V958.81Z" fill="white" fill-opacity="0.15"/>
<path d="M128.476 126.097H126.097V128.476H128.476V126.097Z" fill="white" fill-opacity="0.15"/>
<path d="M1080.15 126.097H1077.77V128.476H1080.15V126.097Z" fill="white" fill-opacity="0.15"/>
<path d="M366.394 126.097H364.015V128.476H366.394V126.097Z" fill="white" fill-opacity="0.15"/>
<path d="M1318.07 126.097H1315.69V128.476H1318.07V126.097Z" fill="white" fill-opacity="0.15"/>
<path d="M604.313 126.097H601.934V128.476H604.313V126.097Z" fill="white" fill-opacity="0.15"/>
<path d="M1555.99 126.097H1553.61V128.476H1555.99V126.097Z" fill="white" fill-opacity="0.15"/>
<path d="M842.231 126.097H839.852V128.476H842.231V126.097Z" fill="white" fill-opacity="0.15"/>
<path d="M1793.9 126.097H1791.52V128.476H1793.9V126.097Z" fill="white" fill-opacity="0.15"/>
<path d="M128.476 364.015H126.097V366.394H128.476V364.015Z" fill="white" fill-opacity="0.15"/>
<path d="M1080.15 364.015H1077.77V366.394H1080.15V364.015Z" fill="white" fill-opacity="0.15"/>
<path d="M366.394 364.015H364.015V366.394H366.394V364.015Z" fill="white" fill-opacity="0.15"/>
<path d="M1318.07 364.015H1315.69V366.394H1318.07V364.015Z" fill="white" fill-opacity="0.15"/>
<path d="M604.313 364.015H601.934V366.394H604.313V364.015Z" fill="white" fill-opacity="0.15"/>
<path d="M1555.99 364.015H1553.61V366.394H1555.99V364.015Z" fill="white" fill-opacity="0.15"/>
<path d="M842.231 364.015H839.852V366.394H842.231V364.015Z" fill="white" fill-opacity="0.15"/>
<path d="M1793.9 364.015H1791.52V366.394H1793.9V364.015Z" fill="white" fill-opacity="0.15"/>
<path d="M128.476 601.933H126.097V604.312H128.476V601.933Z" fill="white" fill-opacity="0.15"/>
<path d="M1080.15 601.933H1077.77V604.312H1080.15V601.933Z" fill="white" fill-opacity="0.15"/>
<path d="M366.394 601.933H364.015V604.312H366.394V601.933Z" fill="white" fill-opacity="0.15"/>
<path d="M1318.07 601.933H1315.69V604.312H1318.07V601.933Z" fill="white" fill-opacity="0.15"/>
<path d="M604.313 601.933H601.934V604.312H604.313V601.933Z" fill="white" fill-opacity="0.15"/>
<path d="M1555.99 601.933H1553.61V604.312H1555.99V601.933Z" fill="white" fill-opacity="0.15"/>
<path d="M842.231 601.933H839.852V604.312H842.231V601.933Z" fill="white" fill-opacity="0.15"/>
<path d="M1793.9 601.933H1791.52V604.312H1793.9V601.933Z" fill="white" fill-opacity="0.15"/>
<path d="M128.476 839.851H126.097V842.231H128.476V839.851Z" fill="white" fill-opacity="0.15"/>
<path d="M1080.15 839.851H1077.77V842.231H1080.15V839.851Z" fill="white" fill-opacity="0.15"/>
<path d="M366.394 839.851H364.015V842.231H366.394V839.851Z" fill="white" fill-opacity="0.15"/>
<path d="M1318.07 839.851H1315.69V842.231H1318.07V839.851Z" fill="white" fill-opacity="0.15"/>
<path d="M604.313 839.851H601.934V842.231H604.313V839.851Z" fill="white" fill-opacity="0.15"/>
<path d="M1555.99 839.851H1553.61V842.231H1555.99V839.851Z" fill="white" fill-opacity="0.15"/>
<path d="M842.231 839.851H839.852V842.231H842.231V839.851Z" fill="white" fill-opacity="0.15"/>
<path d="M1793.9 839.851H1791.52V842.231H1793.9V839.851Z" fill="white" fill-opacity="0.15"/>
</svg>
