<svg width="43" height="43" viewBox="0 0 43 43" fill="none" xmlns="http://www.w3.org/2000/svg">
<path d="M21.9372 7.16675C22.894 7.17212 25.2876 7.19541 27.8318 7.29754L28.7348 7.33696C31.2951 7.457 33.8536 7.66483 35.1239 8.01779C36.817 8.49437 38.1464 9.88112 38.5961 11.6405C39.3128 14.4355 39.4024 19.8858 39.4131 21.2062L39.4149 21.4786V21.7903C39.4024 23.1108 39.3128 28.5628 38.5961 31.356C38.141 33.1208 36.8098 34.5094 35.1239 34.9788C33.8536 35.3317 31.2951 35.5396 28.7348 35.6596L27.8318 35.7008C25.2876 35.8012 22.894 35.8262 21.9372 35.8298L21.5162 35.8316H21.0593C19.0347 35.8191 10.5673 35.7277 7.87262 34.9788C6.18129 34.5022 4.85008 33.1155 4.40037 31.356C3.68371 28.561 3.59412 23.1108 3.58337 21.7903V21.2062C3.59412 19.8858 3.68371 14.4337 4.40037 11.6405C4.85546 9.87575 6.18667 8.48721 7.87442 8.01958C10.5673 7.26887 19.0365 7.1775 21.0611 7.16675H21.9372ZM17.9149 15.2292V27.7709L28.6649 21.5001L17.9149 15.2292Z" fill="white"/>
</svg>
