<svg width="43" height="43" viewBox="0 0 43 43" fill="none" xmlns="http://www.w3.org/2000/svg">
<path d="M23.3418 3.58521C24.6492 3.5802 25.9567 3.59334 27.2638 3.62463L27.6114 3.63717C28.0127 3.6515 28.4086 3.66942 28.887 3.69092C30.7933 3.7805 32.0941 4.0815 33.2354 4.52405C34.4179 4.97913 35.4141 5.59546 36.4102 6.59163C37.3211 7.48676 38.026 8.56953 38.476 9.76467C38.9186 10.906 39.2196 12.2085 39.3091 14.1148C39.3306 14.5914 39.3486 14.9892 39.3629 15.3905L39.3736 15.7381C39.4055 17.0446 39.4192 18.3514 39.4149 19.6583L39.4166 20.9948V23.3419C39.4211 24.6494 39.4073 25.9568 39.3754 27.2639L39.3647 27.6115C39.3504 28.0128 39.3324 28.4088 39.3109 28.8871C39.2214 30.7935 38.9168 32.0942 38.476 33.2355C38.0275 34.4319 37.3224 35.5156 36.4102 36.4103C35.5143 37.3211 34.431 38.026 33.2354 38.4761C32.0941 38.9187 30.7933 39.2197 28.887 39.3093C28.4086 39.3308 28.0127 39.3487 27.6114 39.363L27.2638 39.3738C25.9567 39.4056 24.6493 39.4193 23.3418 39.415L22.0052 39.4168H19.6599C18.3525 39.4212 17.045 39.4074 15.738 39.3755L15.3904 39.3648C14.9651 39.3494 14.5398 39.3315 14.1147 39.311C12.2084 39.2215 10.9076 38.9169 9.76456 38.4761C8.56895 38.027 7.48598 37.322 6.59152 36.4103C5.67964 35.515 4.97404 34.4315 4.52393 33.2355C4.08139 32.0942 3.78039 30.7935 3.69081 28.8871C3.67086 28.462 3.65294 28.0368 3.63706 27.6115L3.6281 27.2639C3.59507 25.9568 3.58014 24.6494 3.58331 23.3419V19.6583C3.57831 18.3514 3.59145 17.0446 3.62273 15.7381L3.63527 15.3905C3.6496 14.9892 3.66752 14.5914 3.68902 14.1148C3.7786 12.2067 4.0796 10.9078 4.52214 9.76467C4.97252 8.56895 5.67949 7.48647 6.59331 6.59342C7.48716 5.68102 8.56945 4.97478 9.76456 4.52405C10.9076 4.0815 12.2066 3.7805 14.1147 3.69092L15.3904 3.63717L15.738 3.62821C17.0444 3.5952 18.3513 3.58027 19.6581 3.58342L23.3418 3.58521ZM21.5 12.5435C20.313 12.5268 19.1345 12.746 18.0331 13.1887C16.9316 13.6313 15.9291 14.2884 15.0837 15.1219C14.2384 15.9553 13.5672 16.9484 13.109 18.0435C12.6509 19.1386 12.415 20.3139 12.415 21.501C12.415 22.6881 12.6509 23.8633 13.109 24.9584C13.5672 26.0535 14.2384 27.0467 15.0837 27.8801C15.9291 28.7136 16.9316 29.3707 18.0331 29.8133C19.1345 30.2559 20.313 30.4752 21.5 30.4584C23.8759 30.4584 26.1545 29.5146 27.8345 27.8346C29.5145 26.1546 30.4583 23.876 30.4583 21.5001C30.4583 19.1242 29.5145 16.8456 27.8345 15.1656C26.1545 13.4856 23.8759 12.5435 21.5 12.5435ZM21.5 16.1269C22.214 16.1137 22.9234 16.243 23.5869 16.5071C24.2504 16.7712 24.8546 17.1649 25.3642 17.6651C25.8738 18.1653 26.2787 18.7621 26.5551 19.4206C26.8315 20.079 26.9739 20.786 26.974 21.5001C26.9741 22.2142 26.8319 22.9212 26.5558 23.5797C26.2796 24.2383 25.8749 24.8352 25.3655 25.3356C24.856 25.836 24.252 26.2299 23.5886 26.4942C22.9252 26.7585 22.2158 26.888 21.5018 26.8751C20.0762 26.8751 18.7091 26.3088 17.7011 25.3008C16.6931 24.2928 16.1268 22.9256 16.1268 21.5001C16.1268 20.0745 16.6931 18.7074 17.7011 17.6994C18.7091 16.6914 20.0762 16.1251 21.5018 16.1251L21.5 16.1269ZM30.9062 9.85605C30.3282 9.87918 29.7816 10.1251 29.3808 10.5422C28.98 10.9593 28.7562 11.5154 28.7562 12.0938C28.7562 12.6723 28.98 13.2283 29.3808 13.6455C29.7816 14.0626 30.3282 14.3085 30.9062 14.3316C31.5002 14.3316 32.0698 14.0957 32.4899 13.6757C32.9099 13.2557 33.1458 12.686 33.1458 12.092C33.1458 11.4981 32.9099 10.9284 32.4899 10.5084C32.0698 10.0884 31.5002 9.85246 30.9062 9.85246V9.85605Z" fill="white"/>
</svg>
