<svg width="43" height="43" viewBox="0 0 43 43" fill="none" xmlns="http://www.w3.org/2000/svg">
<path d="M29.7417 10.4275C28.517 9.02932 27.842 7.23373 27.8425 5.375H22.3063V27.5917C22.2636 28.7939 21.756 29.9327 20.8904 30.7682C20.0249 31.6037 18.8689 32.0707 17.6659 32.0708C15.1217 32.0708 13.0075 29.9925 13.0075 27.4125C13.0075 24.3308 15.9817 22.0196 19.0455 22.9692V17.3075C12.8642 16.4833 7.45337 21.285 7.45337 27.4125C7.45337 33.3787 12.3984 37.625 17.648 37.625C23.2738 37.625 27.8425 33.0562 27.8425 27.4125V16.1429C30.0875 17.7551 32.7828 18.6202 35.5467 18.6154V13.0792C35.5467 13.0792 32.1784 13.2404 29.7417 10.4275Z" fill="white"/>
</svg>
